solid batterie5
   facet normal 1.000000e+00 0.000000e+00 -0.000000e+00
      outer loop
         vertex 1.250000e+01 4.128846e+01 2.000000e+01
         vertex 1.250000e+01 4.128846e+01 3.500000e+01
         vertex 1.250000e+01 2.871154e+01 3.500000e+01
      endloop
   endfacet
   facet normal 1.000000e+00 0.000000e+00 0.000000e+00
      outer loop
         vertex 1.250000e+01 6.800000e+01 0.000000e+00
         vertex 1.250000e+01 3.829090e+01 6.444762e+00
         vertex 1.250000e+01 3.723358e+01 5.270498e+00
      endloop
   endfacet
   facet normal 1.000000e+00 0.000000e+00 0.000000e+00
      outer loop
         vertex 1.250000e+01 3.723358e+01 5.270498e+00
         vertex 1.250000e+01 3.579006e+01 4.627801e+00
         vertex 1.250000e+01 6.800000e+01 0.000000e+00
      endloop
   endfacet
   facet normal 1.000000e+00 0.000000e+00 0.000000e+00
      outer loop
         vertex 1.250000e+01 6.800000e+01 0.000000e+00
         vertex 1.250000e+01 3.579006e+01 4.627801e+00
         vertex 1.250000e+01 3.420994e+01 4.627801e+00
      endloop
   endfacet
   facet normal 1.000000e+00 0.000000e+00 0.000000e+00
      outer loop
         vertex 1.250000e+01 6.800000e+01 0.000000e+00
         vertex 1.250000e+01 3.420994e+01 4.627801e+00
         vertex 1.250000e+01 2.000000e+00 0.000000e+00
      endloop
   endfacet
   facet normal 1.000000e+00 0.000000e+00 0.000000e+00
      outer loop
         vertex 1.250000e+01 2.000000e+00 0.000000e+00
         vertex 1.250000e+01 3.420994e+01 4.627801e+00
         vertex 1.250000e+01 3.276642e+01 5.270498e+00
      endloop
   endfacet
   facet normal 1.000000e+00 0.000000e+00 -0.000000e+00
      outer loop
         vertex 1.250000e+01 3.654560e+01 1.181624e+01
         vertex 1.250000e+01 4.128846e+01 2.000000e+01
         vertex 1.250000e+01 3.500000e+01 1.214476e+01
      endloop
   endfacet
   facet normal 1.000000e+00 0.000000e+00 -0.000000e+00
      outer loop
         vertex 1.250000e+01 3.500000e+01 1.214476e+01
         vertex 1.250000e+01 4.128846e+01 2.000000e+01
         vertex 1.250000e+01 2.871154e+01 3.500000e+01
      endloop
   endfacet
   facet normal 1.000000e+00 0.000000e+00 0.000000e+00
      outer loop
         vertex 1.250000e+01 3.500000e+01 1.214476e+01
         vertex 1.250000e+01 2.871154e+01 3.500000e+01
         vertex 1.250000e+01 3.345440e+01 1.181624e+01
      endloop
   endfacet
   facet normal 1.000000e+00 0.000000e+00 -0.000000e+00
      outer loop
         vertex 1.250000e+01 6.900000e+01 2.679492e-01
         vertex 1.250000e+01 6.973205e+01 1.000000e+00
         vertex 1.250000e+01 6.800000e+01 0.000000e+00
      endloop
   endfacet
   facet normal 1.000000e+00 0.000000e+00 0.000000e+00
      outer loop
         vertex 1.250000e+01 6.800000e+01 0.000000e+00
         vertex 1.250000e+01 6.973205e+01 1.000000e+00
         vertex 1.250000e+01 7.000000e+01 2.000000e+00
      endloop
   endfacet
   facet normal 1.000000e+00 0.000000e+00 -0.000000e+00
      outer loop
         vertex 1.250000e+01 6.800000e+01 0.000000e+00
         vertex 1.250000e+01 7.000000e+01 2.000000e+00
         vertex 1.250000e+01 3.829090e+01 6.444762e+00
      endloop
   endfacet
   facet normal 1.000000e+00 -0.000000e+00 0.000000e+00
      outer loop
         vertex 1.250000e+01 3.829090e+01 6.444762e+00
         vertex 1.250000e+01 7.000000e+01 2.000000e+00
         vertex 1.250000e+01 3.877918e+01 7.947554e+00
      endloop
   endfacet
   facet normal 1.000000e+00 0.000000e+00 -0.000000e+00
      outer loop
         vertex 1.250000e+01 3.861401e+01 9.519027e+00
         vertex 1.250000e+01 4.421739e+01 1.292893e+01
         vertex 1.250000e+01 3.782395e+01 1.088746e+01
      endloop
   endfacet
   facet normal 1.000000e+00 0.000000e+00 0.000000e+00
      outer loop
         vertex 1.250000e+01 3.782395e+01 1.088746e+01
         vertex 1.250000e+01 4.421739e+01 1.292893e+01
         vertex 1.250000e+01 4.262820e+01 1.500000e+01
      endloop
   endfacet
   facet normal 1.000000e+00 0.000000e+00 -0.000000e+00
      outer loop
         vertex 1.250000e+01 3.782395e+01 1.088746e+01
         vertex 1.250000e+01 4.262820e+01 1.500000e+01
         vertex 1.250000e+01 3.654560e+01 1.181624e+01
      endloop
   endfacet
   facet normal 1.000000e+00 0.000000e+00 0.000000e+00
      outer loop
         vertex 1.250000e+01 3.654560e+01 1.181624e+01
         vertex 1.250000e+01 4.262820e+01 1.500000e+01
         vertex 1.250000e+01 4.162920e+01 1.741181e+01
      endloop
   endfacet
   facet normal 1.000000e+00 0.000000e+00 0.000000e+00
      outer loop
         vertex 1.250000e+01 3.654560e+01 1.181624e+01
         vertex 1.250000e+01 4.162920e+01 1.741181e+01
         vertex 1.250000e+01 4.128846e+01 2.000000e+01
      endloop
   endfacet
   facet normal 1.000000e+00 0.000000e+00 0.000000e+00
      outer loop
         vertex 1.250000e+01 2.871154e+01 3.500000e+01
         vertex 1.250000e+01 2.871154e+01 2.000000e+01
         vertex 1.250000e+01 3.345440e+01 1.181624e+01
      endloop
   endfacet
   facet normal 1.000000e+00 0.000000e+00 0.000000e+00
      outer loop
         vertex 1.250000e+01 3.345440e+01 1.181624e+01
         vertex 1.250000e+01 2.871154e+01 2.000000e+01
         vertex 1.250000e+01 2.837080e+01 1.741181e+01
      endloop
   endfacet
   facet normal 1.000000e+00 0.000000e+00 0.000000e+00
      outer loop
         vertex 1.250000e+01 3.345440e+01 1.181624e+01
         vertex 1.250000e+01 2.837080e+01 1.741181e+01
         vertex 1.250000e+01 3.217605e+01 1.088746e+01
      endloop
   endfacet
   facet normal 1.000000e+00 0.000000e+00 0.000000e+00
      outer loop
         vertex 1.250000e+01 3.217605e+01 1.088746e+01
         vertex 1.250000e+01 2.837080e+01 1.741181e+01
         vertex 1.250000e+01 2.737180e+01 1.500000e+01
      endloop
   endfacet
   facet normal 1.000000e+00 0.000000e+00 0.000000e+00
      outer loop
         vertex 1.250000e+01 3.217605e+01 1.088746e+01
         vertex 1.250000e+01 2.737180e+01 1.500000e+01
         vertex 1.250000e+01 3.138599e+01 9.519027e+00
      endloop
   endfacet
   facet normal 1.000000e+00 -0.000000e+00 -0.000000e+00
      outer loop
         vertex 1.250000e+01 2.679490e-01 1.000000e+00
         vertex 1.250000e+01 9.999983e-01 2.679492e-01
         vertex 1.250000e+01 0.000000e+00 2.000000e+00
      endloop
   endfacet
   facet normal 1.000000e+00 0.000000e+00 0.000000e+00
      outer loop
         vertex 1.250000e+01 0.000000e+00 2.000000e+00
         vertex 1.250000e+01 9.999983e-01 2.679492e-01
         vertex 1.250000e+01 2.000000e+00 0.000000e+00
      endloop
   endfacet
   facet normal 1.000000e+00 0.000000e+00 0.000000e+00
      outer loop
         vertex 1.250000e+01 6.973205e+01 9.000000e+00
         vertex 1.250000e+01 6.900000e+01 9.732051e+00
         vertex 1.250000e+01 7.000000e+01 8.000000e+00
      endloop
   endfacet
   facet normal 1.000000e+00 0.000000e+00 0.000000e+00
      outer loop
         vertex 1.250000e+01 7.000000e+01 8.000000e+00
         vertex 1.250000e+01 6.900000e+01 9.732051e+00
         vertex 1.250000e+01 6.800000e+01 1.000000e+01
      endloop
   endfacet
   facet normal 1.000000e+00 0.000000e+00 0.000000e+00
      outer loop
         vertex 1.250000e+01 7.000000e+01 8.000000e+00
         vertex 1.250000e+01 6.800000e+01 1.000000e+01
         vertex 1.250000e+01 7.000000e+01 2.000000e+00
      endloop
   endfacet
   facet normal 1.000000e+00 0.000000e+00 0.000000e+00
      outer loop
         vertex 1.250000e+01 7.000000e+01 2.000000e+00
         vertex 1.250000e+01 6.800000e+01 1.000000e+01
         vertex 1.250000e+01 5.128846e+01 1.000000e+01
      endloop
   endfacet
   facet normal 1.000000e+00 0.000000e+00 0.000000e+00
      outer loop
         vertex 1.250000e+01 7.000000e+01 2.000000e+00
         vertex 1.250000e+01 5.128846e+01 1.000000e+01
         vertex 1.250000e+01 3.877918e+01 7.947554e+00
      endloop
   endfacet
   facet normal 1.000000e+00 0.000000e+00 0.000000e+00
      outer loop
         vertex 1.250000e+01 3.877918e+01 7.947554e+00
         vertex 1.250000e+01 5.128846e+01 1.000000e+01
         vertex 1.250000e+01 4.870027e+01 1.034074e+01
      endloop
   endfacet
   facet normal 1.000000e+00 0.000000e+00 -0.000000e+00
      outer loop
         vertex 1.250000e+01 3.877918e+01 7.947554e+00
         vertex 1.250000e+01 4.870027e+01 1.034074e+01
         vertex 1.250000e+01 3.861401e+01 9.519027e+00
      endloop
   endfacet
   facet normal 1.000000e+00 0.000000e+00 0.000000e+00
      outer loop
         vertex 1.250000e+01 3.861401e+01 9.519027e+00
         vertex 1.250000e+01 4.870027e+01 1.034074e+01
         vertex 1.250000e+01 4.628846e+01 1.133975e+01
      endloop
   endfacet
   facet normal 1.000000e+00 0.000000e+00 0.000000e+00
      outer loop
         vertex 1.250000e+01 3.861401e+01 9.519027e+00
         vertex 1.250000e+01 4.628846e+01 1.133975e+01
         vertex 1.250000e+01 4.421739e+01 1.292893e+01
      endloop
   endfacet
   facet normal 1.000000e+00 0.000000e+00 0.000000e+00
      outer loop
         vertex 1.250000e+01 2.737180e+01 1.500000e+01
         vertex 1.250000e+01 2.578261e+01 1.292893e+01
         vertex 1.250000e+01 3.138599e+01 9.519027e+00
      endloop
   endfacet
   facet normal 1.000000e+00 0.000000e+00 0.000000e+00
      outer loop
         vertex 1.250000e+01 3.138599e+01 9.519027e+00
         vertex 1.250000e+01 2.578261e+01 1.292893e+01
         vertex 1.250000e+01 2.371154e+01 1.133975e+01
      endloop
   endfacet
   facet normal 1.000000e+00 0.000000e+00 0.000000e+00
      outer loop
         vertex 1.250000e+01 3.138599e+01 9.519027e+00
         vertex 1.250000e+01 2.371154e+01 1.133975e+01
         vertex 1.250000e+01 3.120000e+01 8.344762e+00
      endloop
   endfacet
   facet normal 1.000000e+00 0.000000e+00 0.000000e+00
      outer loop
         vertex 1.250000e+01 3.120000e+01 8.344762e+00
         vertex 1.250000e+01 2.371154e+01 1.133975e+01
         vertex 1.250000e+01 2.129973e+01 1.034074e+01
      endloop
   endfacet
   facet normal 1.000000e+00 0.000000e+00 0.000000e+00
      outer loop
         vertex 1.250000e+01 3.120000e+01 8.344762e+00
         vertex 1.250000e+01 2.129973e+01 1.034074e+01
         vertex 1.250000e+01 3.122082e+01 7.947554e+00
      endloop
   endfacet
   facet normal 1.000000e+00 0.000000e+00 0.000000e+00
      outer loop
         vertex 1.250000e+01 3.122082e+01 7.947554e+00
         vertex 1.250000e+01 2.129973e+01 1.034074e+01
         vertex 1.250000e+01 1.871154e+01 1.000000e+01
      endloop
   endfacet
   facet normal 1.000000e+00 -0.000000e+00 0.000000e+00
      outer loop
         vertex 1.250000e+01 9.999983e-01 9.732051e+00
         vertex 1.250000e+01 2.679490e-01 9.000000e+00
         vertex 1.250000e+01 2.000000e+00 1.000000e+01
      endloop
   endfacet
   facet normal 1.000000e+00 0.000000e+00 0.000000e+00
      outer loop
         vertex 1.250000e+01 2.000000e+00 1.000000e+01
         vertex 1.250000e+01 2.679490e-01 9.000000e+00
         vertex 1.250000e+01 0.000000e+00 8.000000e+00
      endloop
   endfacet
   facet normal 1.000000e+00 -0.000000e+00 0.000000e+00
      outer loop
         vertex 1.250000e+01 2.000000e+00 1.000000e+01
         vertex 1.250000e+01 0.000000e+00 8.000000e+00
         vertex 1.250000e+01 1.871154e+01 1.000000e+01
      endloop
   endfacet
   facet normal 1.000000e+00 0.000000e+00 0.000000e+00
      outer loop
         vertex 1.250000e+01 1.871154e+01 1.000000e+01
         vertex 1.250000e+01 0.000000e+00 8.000000e+00
         vertex 1.250000e+01 0.000000e+00 2.000000e+00
      endloop
   endfacet
   facet normal 1.000000e+00 0.000000e+00 0.000000e+00
      outer loop
         vertex 1.250000e+01 1.871154e+01 1.000000e+01
         vertex 1.250000e+01 0.000000e+00 2.000000e+00
         vertex 1.250000e+01 3.122082e+01 7.947554e+00
      endloop
   endfacet
   facet normal 1.000000e+00 0.000000e+00 0.000000e+00
      outer loop
         vertex 1.250000e+01 3.122082e+01 7.947554e+00
         vertex 1.250000e+01 0.000000e+00 2.000000e+00
         vertex 1.250000e+01 2.000000e+00 0.000000e+00
      endloop
   endfacet
   facet normal 1.000000e+00 0.000000e+00 0.000000e+00
      outer loop
         vertex 1.250000e+01 3.122082e+01 7.947554e+00
         vertex 1.250000e+01 2.000000e+00 0.000000e+00
         vertex 1.250000e+01 3.170910e+01 6.444762e+00
      endloop
   endfacet
   facet normal 1.000000e+00 0.000000e+00 0.000000e+00
      outer loop
         vertex 1.250000e+01 3.170910e+01 6.444762e+00
         vertex 1.250000e+01 2.000000e+00 0.000000e+00
         vertex 1.250000e+01 3.276642e+01 5.270498e+00
      endloop
   endfacet
   facet normal 0.000000e+00 -0.000000e+00 1.000000e+00
      outer loop
         vertex 1.250000e+01 2.000000e+00 1.000000e+01
         vertex 1.250000e+01 1.871154e+01 1.000000e+01
         vertex 0.000000e+00 2.000000e+00 1.000000e+01
      endloop
   endfacet
   facet normal 0.000000e+00 0.000000e+00 1.000000e+00
      outer loop
         vertex 0.000000e+00 2.000000e+00 1.000000e+01
         vertex 1.250000e+01 1.871154e+01 1.000000e+01
         vertex 0.000000e+00 1.871154e+01 1.000000e+01
      endloop
   endfacet
   facet normal 0.000000e+00 1.000000e+00 0.000000e+00
      outer loop
         vertex 0.000000e+00 7.000000e+01 2.000000e+00
         vertex 0.000000e+00 7.000000e+01 8.000000e+00
         vertex 1.250000e+01 7.000000e+01 2.000000e+00
      endloop
   endfacet
   facet normal 0.000000e+00 1.000000e+00 -0.000000e+00
      outer loop
         vertex 1.250000e+01 7.000000e+01 2.000000e+00
         vertex 0.000000e+00 7.000000e+01 8.000000e+00
         vertex 1.250000e+01 7.000000e+01 8.000000e+00
      endloop
   endfacet
   facet normal -1.000000e+00 -0.000000e+00 0.000000e+00
      outer loop
         vertex 0.000000e+00 3.500000e+01 1.214476e+01
         vertex 0.000000e+00 3.345440e+01 1.181624e+01
         vertex 0.000000e+00 2.871154e+01 2.000000e+01
      endloop
   endfacet
   facet normal -1.000000e+00 0.000000e+00 0.000000e+00
      outer loop
         vertex 0.000000e+00 3.723358e+01 5.270498e+00
         vertex 0.000000e+00 3.829090e+01 6.444762e+00
         vertex 0.000000e+00 6.800000e+01 0.000000e+00
      endloop
   endfacet
   facet normal -1.000000e+00 0.000000e+00 -0.000000e+00
      outer loop
         vertex 0.000000e+00 3.170910e+01 6.444762e+00
         vertex 0.000000e+00 3.276642e+01 5.270498e+00
         vertex 0.000000e+00 2.000000e+00 0.000000e+00
      endloop
   endfacet
   facet normal -1.000000e+00 0.000000e+00 0.000000e+00
      outer loop
         vertex 0.000000e+00 2.000000e+00 0.000000e+00
         vertex 0.000000e+00 3.276642e+01 5.270498e+00
         vertex 0.000000e+00 3.420994e+01 4.627801e+00
      endloop
   endfacet
   facet normal -1.000000e+00 0.000000e+00 0.000000e+00
      outer loop
         vertex 0.000000e+00 2.000000e+00 0.000000e+00
         vertex 0.000000e+00 3.420994e+01 4.627801e+00
         vertex 0.000000e+00 6.800000e+01 0.000000e+00
      endloop
   endfacet
   facet normal -1.000000e+00 0.000000e+00 0.000000e+00
      outer loop
         vertex 0.000000e+00 6.800000e+01 0.000000e+00
         vertex 0.000000e+00 3.420994e+01 4.627801e+00
         vertex 0.000000e+00 3.579006e+01 4.627801e+00
      endloop
   endfacet
   facet normal -1.000000e+00 0.000000e+00 0.000000e+00
      outer loop
         vertex 0.000000e+00 6.800000e+01 0.000000e+00
         vertex 0.000000e+00 3.579006e+01 4.627801e+00
         vertex 0.000000e+00 3.723358e+01 5.270498e+00
      endloop
   endfacet
   facet normal -1.000000e+00 0.000000e+00 0.000000e+00
      outer loop
         vertex 0.000000e+00 1.871154e+01 1.000000e+01
         vertex 0.000000e+00 2.129973e+01 1.034074e+01
         vertex 0.000000e+00 3.122082e+01 7.947554e+00
      endloop
   endfacet
   facet normal -1.000000e+00 0.000000e+00 0.000000e+00
      outer loop
         vertex 0.000000e+00 3.829090e+01 6.444762e+00
         vertex 0.000000e+00 3.877918e+01 7.947554e+00
         vertex 0.000000e+00 6.800000e+01 0.000000e+00
      endloop
   endfacet
   facet normal -1.000000e+00 0.000000e+00 0.000000e+00
      outer loop
         vertex 0.000000e+00 6.800000e+01 0.000000e+00
         vertex 0.000000e+00 3.877918e+01 7.947554e+00
         vertex 0.000000e+00 7.000000e+01 2.000000e+00
      endloop
   endfacet
   facet normal -1.000000e+00 0.000000e+00 0.000000e+00
      outer loop
         vertex 0.000000e+00 6.800000e+01 0.000000e+00
         vertex 0.000000e+00 7.000000e+01 2.000000e+00
         vertex 0.000000e+00 6.900000e+01 2.679492e-01
      endloop
   endfacet
   facet normal -1.000000e+00 0.000000e+00 0.000000e+00
      outer loop
         vertex 0.000000e+00 6.900000e+01 2.679492e-01
         vertex 0.000000e+00 7.000000e+01 2.000000e+00
         vertex 0.000000e+00 6.973205e+01 1.000000e+00
      endloop
   endfacet
   facet normal -1.000000e+00 0.000000e+00 0.000000e+00
      outer loop
         vertex 0.000000e+00 2.871154e+01 3.500000e+01
         vertex 0.000000e+00 4.128846e+01 3.500000e+01
         vertex 0.000000e+00 4.128846e+01 2.000000e+01
      endloop
   endfacet
   facet normal -1.000000e+00 0.000000e+00 0.000000e+00
      outer loop
         vertex 0.000000e+00 3.122082e+01 7.947554e+00
         vertex 0.000000e+00 2.129973e+01 1.034074e+01
         vertex 0.000000e+00 3.138599e+01 9.519027e+00
      endloop
   endfacet
   facet normal -1.000000e+00 0.000000e+00 0.000000e+00
      outer loop
         vertex 0.000000e+00 2.129973e+01 1.034074e+01
         vertex 0.000000e+00 2.371154e+01 1.133975e+01
         vertex 0.000000e+00 3.138599e+01 9.519027e+00
      endloop
   endfacet
   facet normal -1.000000e+00 0.000000e+00 0.000000e+00
      outer loop
         vertex 0.000000e+00 3.138599e+01 9.519027e+00
         vertex 0.000000e+00 2.371154e+01 1.133975e+01
         vertex 0.000000e+00 2.578261e+01 1.292893e+01
      endloop
   endfacet
   facet normal -1.000000e+00 0.000000e+00 0.000000e+00
      outer loop
         vertex 0.000000e+00 3.138599e+01 9.519027e+00
         vertex 0.000000e+00 2.578261e+01 1.292893e+01
         vertex 0.000000e+00 3.217605e+01 1.088746e+01
      endloop
   endfacet
   facet normal -1.000000e+00 0.000000e+00 0.000000e+00
      outer loop
         vertex 0.000000e+00 3.217605e+01 1.088746e+01
         vertex 0.000000e+00 2.578261e+01 1.292893e+01
         vertex 0.000000e+00 2.737180e+01 1.500000e+01
      endloop
   endfacet
   facet normal -1.000000e+00 0.000000e+00 0.000000e+00
      outer loop
         vertex 0.000000e+00 3.217605e+01 1.088746e+01
         vertex 0.000000e+00 2.737180e+01 1.500000e+01
         vertex 0.000000e+00 3.345440e+01 1.181624e+01
      endloop
   endfacet
   facet normal -1.000000e+00 0.000000e+00 0.000000e+00
      outer loop
         vertex 0.000000e+00 3.345440e+01 1.181624e+01
         vertex 0.000000e+00 2.737180e+01 1.500000e+01
         vertex 0.000000e+00 2.837080e+01 1.741181e+01
      endloop
   endfacet
   facet normal -1.000000e+00 0.000000e+00 0.000000e+00
      outer loop
         vertex 0.000000e+00 3.345440e+01 1.181624e+01
         vertex 0.000000e+00 2.837080e+01 1.741181e+01
         vertex 0.000000e+00 2.871154e+01 2.000000e+01
      endloop
   endfacet
   facet normal -1.000000e+00 0.000000e+00 0.000000e+00
      outer loop
         vertex 0.000000e+00 9.999983e-01 2.679492e-01
         vertex 0.000000e+00 2.679490e-01 1.000000e+00
         vertex 0.000000e+00 2.000000e+00 0.000000e+00
      endloop
   endfacet
   facet normal -1.000000e+00 0.000000e+00 0.000000e+00
      outer loop
         vertex 0.000000e+00 2.000000e+00 0.000000e+00
         vertex 0.000000e+00 2.679490e-01 1.000000e+00
         vertex 0.000000e+00 0.000000e+00 2.000000e+00
      endloop
   endfacet
   facet normal -1.000000e+00 0.000000e+00 0.000000e+00
      outer loop
         vertex 0.000000e+00 2.000000e+00 0.000000e+00
         vertex 0.000000e+00 0.000000e+00 2.000000e+00
         vertex 0.000000e+00 3.170910e+01 6.444762e+00
      endloop
   endfacet
   facet normal -1.000000e+00 0.000000e+00 0.000000e+00
      outer loop
         vertex 0.000000e+00 3.877918e+01 7.947554e+00
         vertex 0.000000e+00 3.861401e+01 9.519027e+00
         vertex 0.000000e+00 4.628846e+01 1.133975e+01
      endloop
   endfacet
   facet normal -1.000000e+00 0.000000e+00 0.000000e+00
      outer loop
         vertex 0.000000e+00 0.000000e+00 8.000000e+00
         vertex 0.000000e+00 2.679490e-01 9.000000e+00
         vertex 0.000000e+00 9.999983e-01 9.732051e+00
      endloop
   endfacet
   facet normal -1.000000e+00 0.000000e+00 0.000000e+00
      outer loop
         vertex 0.000000e+00 2.871154e+01 2.000000e+01
         vertex 0.000000e+00 2.871154e+01 3.500000e+01
         vertex 0.000000e+00 3.500000e+01 1.214476e+01
      endloop
   endfacet
   facet normal -1.000000e+00 0.000000e+00 0.000000e+00
      outer loop
         vertex 0.000000e+00 3.500000e+01 1.214476e+01
         vertex 0.000000e+00 2.871154e+01 3.500000e+01
         vertex 0.000000e+00 4.128846e+01 2.000000e+01
      endloop
   endfacet
   facet normal -1.000000e+00 0.000000e+00 0.000000e+00
      outer loop
         vertex 0.000000e+00 3.500000e+01 1.214476e+01
         vertex 0.000000e+00 4.128846e+01 2.000000e+01
         vertex 0.000000e+00 3.654560e+01 1.181624e+01
      endloop
   endfacet
   facet normal -1.000000e+00 0.000000e+00 0.000000e+00
      outer loop
         vertex 0.000000e+00 3.654560e+01 1.181624e+01
         vertex 0.000000e+00 4.128846e+01 2.000000e+01
         vertex 0.000000e+00 4.162920e+01 1.741181e+01
      endloop
   endfacet
   facet normal -1.000000e+00 0.000000e+00 0.000000e+00
      outer loop
         vertex 0.000000e+00 3.654560e+01 1.181624e+01
         vertex 0.000000e+00 4.162920e+01 1.741181e+01
         vertex 0.000000e+00 3.782395e+01 1.088746e+01
      endloop
   endfacet
   facet normal -1.000000e+00 0.000000e+00 0.000000e+00
      outer loop
         vertex 0.000000e+00 3.782395e+01 1.088746e+01
         vertex 0.000000e+00 4.162920e+01 1.741181e+01
         vertex 0.000000e+00 4.262820e+01 1.500000e+01
      endloop
   endfacet
   facet normal -1.000000e+00 0.000000e+00 0.000000e+00
      outer loop
         vertex 0.000000e+00 3.782395e+01 1.088746e+01
         vertex 0.000000e+00 4.262820e+01 1.500000e+01
         vertex 0.000000e+00 3.861401e+01 9.519027e+00
      endloop
   endfacet
   facet normal -1.000000e+00 0.000000e+00 0.000000e+00
      outer loop
         vertex 0.000000e+00 3.861401e+01 9.519027e+00
         vertex 0.000000e+00 4.262820e+01 1.500000e+01
         vertex 0.000000e+00 4.421739e+01 1.292893e+01
      endloop
   endfacet
   facet normal -1.000000e+00 0.000000e+00 0.000000e+00
      outer loop
         vertex 0.000000e+00 3.861401e+01 9.519027e+00
         vertex 0.000000e+00 4.421739e+01 1.292893e+01
         vertex 0.000000e+00 4.628846e+01 1.133975e+01
      endloop
   endfacet
   facet normal -1.000000e+00 0.000000e+00 -0.000000e+00
      outer loop
         vertex 0.000000e+00 9.999983e-01 9.732051e+00
         vertex 0.000000e+00 2.000000e+00 1.000000e+01
         vertex 0.000000e+00 0.000000e+00 8.000000e+00
      endloop
   endfacet
   facet normal -1.000000e+00 0.000000e+00 0.000000e+00
      outer loop
         vertex 0.000000e+00 0.000000e+00 8.000000e+00
         vertex 0.000000e+00 2.000000e+00 1.000000e+01
         vertex 0.000000e+00 1.871154e+01 1.000000e+01
      endloop
   endfacet
   facet normal -1.000000e+00 0.000000e+00 0.000000e+00
      outer loop
         vertex 0.000000e+00 0.000000e+00 8.000000e+00
         vertex 0.000000e+00 1.871154e+01 1.000000e+01
         vertex 0.000000e+00 0.000000e+00 2.000000e+00
      endloop
   endfacet
   facet normal -1.000000e+00 0.000000e+00 0.000000e+00
      outer loop
         vertex 0.000000e+00 0.000000e+00 2.000000e+00
         vertex 0.000000e+00 1.871154e+01 1.000000e+01
         vertex 0.000000e+00 3.122082e+01 7.947554e+00
      endloop
   endfacet
   facet normal -1.000000e+00 0.000000e+00 0.000000e+00
      outer loop
         vertex 0.000000e+00 0.000000e+00 2.000000e+00
         vertex 0.000000e+00 3.122082e+01 7.947554e+00
         vertex 0.000000e+00 3.170910e+01 6.444762e+00
      endloop
   endfacet
   facet normal -1.000000e+00 0.000000e+00 0.000000e+00
      outer loop
         vertex 0.000000e+00 6.800000e+01 1.000000e+01
         vertex 0.000000e+00 6.900000e+01 9.732051e+00
         vertex 0.000000e+00 6.973205e+01 9.000000e+00
      endloop
   endfacet
   facet normal -1.000000e+00 0.000000e+00 -0.000000e+00
      outer loop
         vertex 0.000000e+00 4.628846e+01 1.133975e+01
         vertex 0.000000e+00 4.870027e+01 1.034074e+01
         vertex 0.000000e+00 3.877918e+01 7.947554e+00
      endloop
   endfacet
   facet normal -1.000000e+00 0.000000e+00 0.000000e+00
      outer loop
         vertex 0.000000e+00 3.877918e+01 7.947554e+00
         vertex 0.000000e+00 4.870027e+01 1.034074e+01
         vertex 0.000000e+00 5.128846e+01 1.000000e+01
      endloop
   endfacet
   facet normal -1.000000e+00 0.000000e+00 0.000000e+00
      outer loop
         vertex 0.000000e+00 3.877918e+01 7.947554e+00
         vertex 0.000000e+00 5.128846e+01 1.000000e+01
         vertex 0.000000e+00 7.000000e+01 2.000000e+00
      endloop
   endfacet
   facet normal -1.000000e+00 0.000000e+00 0.000000e+00
      outer loop
         vertex 0.000000e+00 7.000000e+01 2.000000e+00
         vertex 0.000000e+00 5.128846e+01 1.000000e+01
         vertex 0.000000e+00 6.800000e+01 1.000000e+01
      endloop
   endfacet
   facet normal -1.000000e+00 0.000000e+00 0.000000e+00
      outer loop
         vertex 0.000000e+00 7.000000e+01 2.000000e+00
         vertex 0.000000e+00 6.800000e+01 1.000000e+01
         vertex 0.000000e+00 7.000000e+01 8.000000e+00
      endloop
   endfacet
   facet normal -1.000000e+00 0.000000e+00 0.000000e+00
      outer loop
         vertex 0.000000e+00 7.000000e+01 8.000000e+00
         vertex 0.000000e+00 6.800000e+01 1.000000e+01
         vertex 0.000000e+00 6.973205e+01 9.000000e+00
      endloop
   endfacet
   facet normal 0.000000e+00 -1.000000e+00 0.000000e+00
      outer loop
         vertex 0.000000e+00 0.000000e+00 8.000000e+00
         vertex 0.000000e+00 0.000000e+00 2.000000e+00
         vertex 1.250000e+01 0.000000e+00 8.000000e+00
      endloop
   endfacet
   facet normal 0.000000e+00 -1.000000e+00 -0.000000e+00
      outer loop
         vertex 1.250000e+01 0.000000e+00 8.000000e+00
         vertex 0.000000e+00 0.000000e+00 2.000000e+00
         vertex 1.250000e+01 0.000000e+00 2.000000e+00
      endloop
   endfacet
   facet normal -0.000000e+00 0.000000e+00 1.000000e+00
      outer loop
         vertex 0.000000e+00 6.800000e+01 1.000000e+01
         vertex 0.000000e+00 5.128846e+01 1.000000e+01
         vertex 1.250000e+01 6.800000e+01 1.000000e+01
      endloop
   endfacet
   facet normal 0.000000e+00 0.000000e+00 1.000000e+00
      outer loop
         vertex 1.250000e+01 6.800000e+01 1.000000e+01
         vertex 0.000000e+00 5.128846e+01 1.000000e+01
         vertex 1.250000e+01 5.128846e+01 1.000000e+01
      endloop
   endfacet
   facet normal 0.000000e+00 -0.000000e+00 -1.000000e+00
      outer loop
         vertex 1.013909e+01 3.500000e+01 0.000000e+00
         vertex 1.250000e+01 2.000000e+00 0.000000e+00
         vertex 6.250000e+00 3.111091e+01 0.000000e+00
      endloop
   endfacet
   facet normal 0.000000e+00 -0.000000e+00 -1.000000e+00
      outer loop
         vertex 6.250000e+00 3.111091e+01 0.000000e+00
         vertex 1.250000e+01 2.000000e+00 0.000000e+00
         vertex 0.000000e+00 2.000000e+00 0.000000e+00
      endloop
   endfacet
   facet normal -0.000000e+00 0.000000e+00 -1.000000e+00
      outer loop
         vertex 6.250000e+00 3.111091e+01 0.000000e+00
         vertex 0.000000e+00 2.000000e+00 0.000000e+00
         vertex 2.360913e+00 3.500000e+01 0.000000e+00
      endloop
   endfacet
   facet normal -0.000000e+00 0.000000e+00 -1.000000e+00
      outer loop
         vertex 2.360913e+00 3.500000e+01 0.000000e+00
         vertex 0.000000e+00 2.000000e+00 0.000000e+00
         vertex 0.000000e+00 6.800000e+01 0.000000e+00
      endloop
   endfacet
   facet normal 0.000000e+00 0.000000e+00 -1.000000e+00
      outer loop
         vertex 2.360913e+00 3.500000e+01 0.000000e+00
         vertex 0.000000e+00 6.800000e+01 0.000000e+00
         vertex 6.250000e+00 3.888909e+01 0.000000e+00
      endloop
   endfacet
   facet normal 0.000000e+00 0.000000e+00 -1.000000e+00
      outer loop
         vertex 6.250000e+00 3.888909e+01 0.000000e+00
         vertex 0.000000e+00 6.800000e+01 0.000000e+00
         vertex 1.250000e+01 6.800000e+01 0.000000e+00
      endloop
   endfacet
   facet normal 0.000000e+00 0.000000e+00 -1.000000e+00
      outer loop
         vertex 6.250000e+00 3.888909e+01 0.000000e+00
         vertex 1.250000e+01 6.800000e+01 0.000000e+00
         vertex 1.013909e+01 3.500000e+01 0.000000e+00
      endloop
   endfacet
   facet normal 0.000000e+00 0.000000e+00 -1.000000e+00
      outer loop
         vertex 1.013909e+01 3.500000e+01 0.000000e+00
         vertex 1.250000e+01 6.800000e+01 0.000000e+00
         vertex 1.250000e+01 2.000000e+00 0.000000e+00
      endloop
   endfacet
   facet normal 0.000000e+00 -1.000000e+00 0.000000e+00
      outer loop
         vertex 1.250000e+01 2.871154e+01 2.000000e+01
         vertex 1.250000e+01 2.871154e+01 3.500000e+01
         vertex 0.000000e+00 2.871154e+01 2.000000e+01
      endloop
   endfacet
   facet normal 0.000000e+00 -1.000000e+00 0.000000e+00
      outer loop
         vertex 0.000000e+00 2.871154e+01 2.000000e+01
         vertex 1.250000e+01 2.871154e+01 3.500000e+01
         vertex 0.000000e+00 2.871154e+01 3.500000e+01
      endloop
   endfacet
   facet normal 0.000000e+00 1.000000e+00 0.000000e+00
      outer loop
         vertex 0.000000e+00 4.128846e+01 2.000000e+01
         vertex 0.000000e+00 4.128846e+01 3.500000e+01
         vertex 1.250000e+01 4.128846e+01 2.000000e+01
      endloop
   endfacet
   facet normal 0.000000e+00 1.000000e+00 -0.000000e+00
      outer loop
         vertex 1.250000e+01 4.128846e+01 2.000000e+01
         vertex 0.000000e+00 4.128846e+01 3.500000e+01
         vertex 1.250000e+01 4.128846e+01 3.500000e+01
      endloop
   endfacet
   facet normal 0.000000e+00 0.000000e+00 1.000000e+00
      outer loop
         vertex 6.250000e+00 3.888909e+01 3.500000e+01
         vertex 0.000000e+00 4.128846e+01 3.500000e+01
         vertex 2.360913e+00 3.500000e+01 3.500000e+01
      endloop
   endfacet
   facet normal 0.000000e+00 0.000000e+00 1.000000e+00
      outer loop
         vertex 2.360913e+00 3.500000e+01 3.500000e+01
         vertex 0.000000e+00 4.128846e+01 3.500000e+01
         vertex 0.000000e+00 2.871154e+01 3.500000e+01
      endloop
   endfacet
   facet normal 0.000000e+00 0.000000e+00 1.000000e+00
      outer loop
         vertex 2.360913e+00 3.500000e+01 3.500000e+01
         vertex 0.000000e+00 2.871154e+01 3.500000e+01
         vertex 6.250000e+00 3.111091e+01 3.500000e+01
      endloop
   endfacet
   facet normal 0.000000e+00 0.000000e+00 1.000000e+00
      outer loop
         vertex 6.250000e+00 3.111091e+01 3.500000e+01
         vertex 0.000000e+00 2.871154e+01 3.500000e+01
         vertex 1.250000e+01 2.871154e+01 3.500000e+01
      endloop
   endfacet
   facet normal -0.000000e+00 0.000000e+00 1.000000e+00
      outer loop
         vertex 6.250000e+00 3.111091e+01 3.500000e+01
         vertex 1.250000e+01 2.871154e+01 3.500000e+01
         vertex 1.013909e+01 3.500000e+01 3.500000e+01
      endloop
   endfacet
   facet normal -0.000000e+00 0.000000e+00 1.000000e+00
      outer loop
         vertex 1.013909e+01 3.500000e+01 3.500000e+01
         vertex 1.250000e+01 2.871154e+01 3.500000e+01
         vertex 1.250000e+01 4.128846e+01 3.500000e+01
      endloop
   endfacet
   facet normal 0.000000e+00 -0.000000e+00 1.000000e+00
      outer loop
         vertex 1.013909e+01 3.500000e+01 3.500000e+01
         vertex 1.250000e+01 4.128846e+01 3.500000e+01
         vertex 6.250000e+00 3.888909e+01 3.500000e+01
      endloop
   endfacet
   facet normal 0.000000e+00 -0.000000e+00 1.000000e+00
      outer loop
         vertex 6.250000e+00 3.888909e+01 3.500000e+01
         vertex 1.250000e+01 4.128846e+01 3.500000e+01
         vertex 0.000000e+00 4.128846e+01 3.500000e+01
      endloop
   endfacet
   facet normal 7.071072e-01 -7.071064e-01 0.000000e+00
      outer loop
         vertex 6.140096e+00 3.877918e+01 7.947554e+00
         vertex 6.250000e+00 3.888909e+01 -1.387779e-14
         vertex 6.140096e+00 3.877918e+01 8.741970e+00
      endloop
   endfacet
   facet normal 7.071072e-01 -7.071064e-01 1.307680e-17
      outer loop
         vertex 6.140096e+00 3.877918e+01 8.741970e+00
         vertex 6.250000e+00 3.888909e+01 -1.387779e-14
         vertex 6.250000e+00 3.888909e+01 3.500000e+01
      endloop
   endfacet
   facet normal 7.071068e-01 -7.071068e-01 3.074427e-09
      outer loop
         vertex 6.140096e+00 3.877918e+01 8.741970e+00
         vertex 6.250000e+00 3.888909e+01 3.500000e+01
         vertex 5.974928e+00 3.861401e+01 9.519027e+00
      endloop
   endfacet
   facet normal 7.071067e-01 -7.071068e-01 4.496644e-09
      outer loop
         vertex 5.974928e+00 3.861401e+01 9.519027e+00
         vertex 6.250000e+00 3.888909e+01 3.500000e+01
         vertex 5.651809e+00 3.829090e+01 1.024476e+01
      endloop
   endfacet
   facet normal 7.071067e-01 -7.071068e-01 1.142777e-08
      outer loop
         vertex 3.906512e+00 3.654560e+01 1.181624e+01
         vertex 4.594497e+00 3.723358e+01 1.141903e+01
         vertex 6.250000e+00 3.888909e+01 3.500000e+01
      endloop
   endfacet
   facet normal 7.071068e-01 -7.071068e-01 3.283320e-09
      outer loop
         vertex 6.250000e+00 3.888909e+01 3.500000e+01
         vertex 4.594497e+00 3.723358e+01 1.141903e+01
         vertex 5.184863e+00 3.782395e+01 1.088746e+01
      endloop
   endfacet
   facet normal 7.071068e-01 -7.071067e-01 -4.522756e-10
      outer loop
         vertex 6.250000e+00 3.888909e+01 3.500000e+01
         vertex 5.184863e+00 3.782395e+01 1.088746e+01
         vertex 5.651809e+00 3.829090e+01 1.024476e+01
      endloop
   endfacet
   facet normal 7.071068e-01 -7.071068e-01 -9.724966e-09
      outer loop
         vertex 6.140096e+00 3.877918e+01 7.947554e+00
         vertex 5.974928e+00 3.861401e+01 7.170498e+00
         vertex 6.250000e+00 3.888909e+01 -1.387779e-14
      endloop
   endfacet
   facet normal 7.071067e-01 -7.071068e-01 -1.506833e-08
      outer loop
         vertex 6.250000e+00 3.888909e+01 -1.387779e-14
         vertex 5.974928e+00 3.861401e+01 7.170498e+00
         vertex 5.651809e+00 3.829090e+01 6.444762e+00
      endloop
   endfacet
   facet normal 7.071068e-01 -7.071067e-01 1.591690e-09
      outer loop
         vertex 6.250000e+00 3.888909e+01 -1.387779e-14
         vertex 5.651809e+00 3.829090e+01 6.444762e+00
         vertex 5.184863e+00 3.782395e+01 5.802066e+00
      endloop
   endfacet
   facet normal 7.071068e-01 -7.071068e-01 0.000000e+00
      outer loop
         vertex 2.360913e+00 3.500000e+01 3.500000e+01
         vertex 2.360913e+00 3.500000e+01 1.214476e+01
         vertex 6.250000e+00 3.888909e+01 3.500000e+01
      endloop
   endfacet
   facet normal 7.071068e-01 -7.071068e-01 8.708955e-09
      outer loop
         vertex 6.250000e+00 3.888909e+01 3.500000e+01
         vertex 2.360913e+00 3.500000e+01 1.214476e+01
         vertex 3.150977e+00 3.579006e+01 1.206172e+01
      endloop
   endfacet
   facet normal 7.071068e-01 -7.071068e-01 -5.331566e-09
      outer loop
         vertex 6.250000e+00 3.888909e+01 3.500000e+01
         vertex 3.150977e+00 3.579006e+01 1.206172e+01
         vertex 3.906512e+00 3.654560e+01 1.181624e+01
      endloop
   endfacet
   facet normal 7.071068e-01 -7.071068e-01 -1.217521e-08
      outer loop
         vertex 5.184863e+00 3.782395e+01 5.802066e+00
         vertex 4.594497e+00 3.723358e+01 5.270498e+00
         vertex 6.250000e+00 3.888909e+01 -1.387779e-14
      endloop
   endfacet
   facet normal 7.071067e-01 -7.071068e-01 -4.503486e-08
      outer loop
         vertex 6.250000e+00 3.888909e+01 -1.387779e-14
         vertex 4.594497e+00 3.723358e+01 5.270498e+00
         vertex 3.906512e+00 3.654560e+01 4.873290e+00
      endloop
   endfacet
   facet normal 7.071068e-01 -7.071068e-01 6.320412e-17
      outer loop
         vertex 6.250000e+00 3.888909e+01 -1.387779e-14
         vertex 3.906512e+00 3.654560e+01 4.873290e+00
         vertex 2.360913e+00 3.500000e+01 -1.387779e-14
      endloop
   endfacet
   facet normal 7.071068e-01 -7.071068e-01 -1.926271e-08
      outer loop
         vertex 2.360913e+00 3.500000e+01 -1.387779e-14
         vertex 3.906512e+00 3.654560e+01 4.873290e+00
         vertex 3.150977e+00 3.579006e+01 4.627801e+00
      endloop
   endfacet
   facet normal 7.071068e-01 -7.071068e-01 0.000000e+00
      outer loop
         vertex 2.360913e+00 3.500000e+01 -1.387779e-14
         vertex 3.150977e+00 3.579006e+01 4.627801e+00
         vertex 2.360913e+00 3.500000e+01 4.544762e+00
      endloop
   endfacet
   facet normal 7.071067e-01 7.071068e-01 -1.506833e-08
      outer loop
         vertex 5.651809e+00 3.170910e+01 6.444762e+00
         vertex 5.974928e+00 3.138599e+01 7.170498e+00
         vertex 6.250000e+00 3.111091e+01 -1.387779e-14
      endloop
   endfacet
   facet normal 7.071068e-01 7.071068e-01 -9.724966e-09
      outer loop
         vertex 5.974928e+00 3.138599e+01 7.170498e+00
         vertex 6.140096e+00 3.122082e+01 7.947554e+00
         vertex 6.250000e+00 3.111091e+01 -1.387779e-14
      endloop
   endfacet
   facet normal 7.071072e-01 7.071064e-01 0.000000e+00
      outer loop
         vertex 6.250000e+00 3.111091e+01 -1.387779e-14
         vertex 6.140096e+00 3.122082e+01 7.947554e+00
         vertex 6.140096e+00 3.122082e+01 8.741970e+00
      endloop
   endfacet
   facet normal 7.071072e-01 7.071064e-01 -0.000000e+00
      outer loop
         vertex 6.250000e+00 3.111091e+01 -1.387779e-14
         vertex 6.140096e+00 3.122082e+01 8.741970e+00
         vertex 6.250000e+00 3.111091e+01 3.500000e+01
      endloop
   endfacet
   facet normal 7.071068e-01 7.071068e-01 3.074427e-09
      outer loop
         vertex 6.250000e+00 3.111091e+01 3.500000e+01
         vertex 6.140096e+00 3.122082e+01 8.741970e+00
         vertex 5.974928e+00 3.138599e+01 9.519027e+00
      endloop
   endfacet
   facet normal 7.071067e-01 7.071068e-01 -4.503486e-08
      outer loop
         vertex 3.906512e+00 3.345440e+01 4.873290e+00
         vertex 4.594497e+00 3.276642e+01 5.270498e+00
         vertex 6.250000e+00 3.111091e+01 -1.387779e-14
      endloop
   endfacet
   facet normal 7.071068e-01 7.071068e-01 -1.217521e-08
      outer loop
         vertex 6.250000e+00 3.111091e+01 -1.387779e-14
         vertex 4.594497e+00 3.276642e+01 5.270498e+00
         vertex 5.184863e+00 3.217605e+01 5.802066e+00
      endloop
   endfacet
   facet normal 7.071068e-01 7.071067e-01 1.591690e-09
      outer loop
         vertex 6.250000e+00 3.111091e+01 -1.387779e-14
         vertex 5.184863e+00 3.217605e+01 5.802066e+00
         vertex 5.651809e+00 3.170910e+01 6.444762e+00
      endloop
   endfacet
   facet normal 7.071067e-01 7.071068e-01 4.496644e-09
      outer loop
         vertex 5.974928e+00 3.138599e+01 9.519027e+00
         vertex 5.651809e+00 3.170910e+01 1.024476e+01
         vertex 6.250000e+00 3.111091e+01 3.500000e+01
      endloop
   endfacet
   facet normal 7.071068e-01 7.071067e-01 -4.522756e-10
      outer loop
         vertex 6.250000e+00 3.111091e+01 3.500000e+01
         vertex 5.651809e+00 3.170910e+01 1.024476e+01
         vertex 5.184863e+00 3.217605e+01 1.088746e+01
      endloop
   endfacet
   facet normal 7.071068e-01 7.071068e-01 3.283320e-09
      outer loop
         vertex 6.250000e+00 3.111091e+01 3.500000e+01
         vertex 5.184863e+00 3.217605e+01 1.088746e+01
         vertex 4.594497e+00 3.276642e+01 1.141903e+01
      endloop
   endfacet
   facet normal 7.071068e-01 7.071068e-01 2.265687e-08
      outer loop
         vertex 3.906512e+00 3.345440e+01 4.873290e+00
         vertex 6.250000e+00 3.111091e+01 -1.387779e-14
         vertex 3.150977e+00 3.420994e+01 4.627801e+00
      endloop
   endfacet
   facet normal 7.071068e-01 7.071068e-01 -8.893863e-09
      outer loop
         vertex 3.150977e+00 3.420994e+01 4.627801e+00
         vertex 6.250000e+00 3.111091e+01 -1.387779e-14
         vertex 2.360913e+00 3.500000e+01 -1.387779e-14
      endloop
   endfacet
   facet normal 7.071068e-01 7.071068e-01 -1.459552e-16
      outer loop
         vertex 3.150977e+00 3.420994e+01 4.627801e+00
         vertex 2.360913e+00 3.500000e+01 -1.387779e-14
         vertex 2.360913e+00 3.500000e+01 4.544762e+00
      endloop
   endfacet
   facet normal 7.071068e-01 7.071068e-01 -0.000000e+00
      outer loop
         vertex 2.360913e+00 3.500000e+01 1.214476e+01
         vertex 2.360913e+00 3.500000e+01 3.500000e+01
         vertex 3.150977e+00 3.420994e+01 1.206172e+01
      endloop
   endfacet
   facet normal 7.071068e-01 7.071068e-01 1.794338e-09
      outer loop
         vertex 3.150977e+00 3.420994e+01 1.206172e+01
         vertex 2.360913e+00 3.500000e+01 3.500000e+01
         vertex 6.250000e+00 3.111091e+01 3.500000e+01
      endloop
   endfacet
   facet normal 7.071068e-01 7.071068e-01 -5.331566e-09
      outer loop
         vertex 3.150977e+00 3.420994e+01 1.206172e+01
         vertex 6.250000e+00 3.111091e+01 3.500000e+01
         vertex 3.906512e+00 3.345440e+01 1.181624e+01
      endloop
   endfacet
   facet normal 7.071067e-01 7.071068e-01 1.142777e-08
      outer loop
         vertex 3.906512e+00 3.345440e+01 1.181624e+01
         vertex 6.250000e+00 3.111091e+01 3.500000e+01
         vertex 4.594497e+00 3.276642e+01 1.141903e+01
      endloop
   endfacet
   facet normal -7.071072e-01 7.071064e-01 0.000000e+00
      outer loop
         vertex 6.359904e+00 3.122082e+01 7.947554e+00
         vertex 6.250000e+00 3.111091e+01 -1.387779e-14
         vertex 6.359904e+00 3.122082e+01 8.741970e+00
      endloop
   endfacet
   facet normal -7.071072e-01 7.071064e-01 0.000000e+00
      outer loop
         vertex 6.359904e+00 3.122082e+01 8.741970e+00
         vertex 6.250000e+00 3.111091e+01 -1.387779e-14
         vertex 6.250000e+00 3.111091e+01 3.500000e+01
      endloop
   endfacet
   facet normal -7.071068e-01 7.071068e-01 3.074427e-09
      outer loop
         vertex 6.359904e+00 3.122082e+01 8.741970e+00
         vertex 6.250000e+00 3.111091e+01 3.500000e+01
         vertex 6.525073e+00 3.138599e+01 9.519027e+00
      endloop
   endfacet
   facet normal -7.071067e-01 7.071068e-01 4.496644e-09
      outer loop
         vertex 6.525073e+00 3.138599e+01 9.519027e+00
         vertex 6.250000e+00 3.111091e+01 3.500000e+01
         vertex 6.848191e+00 3.170910e+01 1.024476e+01
      endloop
   endfacet
   facet normal -7.071067e-01 7.071068e-01 1.142777e-08
      outer loop
         vertex 8.593488e+00 3.345440e+01 1.181624e+01
         vertex 7.905503e+00 3.276642e+01 1.141903e+01
         vertex 6.250000e+00 3.111091e+01 3.500000e+01
      endloop
   endfacet
   facet normal -7.071068e-01 7.071068e-01 3.283320e-09
      outer loop
         vertex 6.250000e+00 3.111091e+01 3.500000e+01
         vertex 7.905503e+00 3.276642e+01 1.141903e+01
         vertex 7.315137e+00 3.217605e+01 1.088746e+01
      endloop
   endfacet
   facet normal -7.071068e-01 7.071067e-01 -4.522756e-10
      outer loop
         vertex 6.250000e+00 3.111091e+01 3.500000e+01
         vertex 7.315137e+00 3.217605e+01 1.088746e+01
         vertex 6.848191e+00 3.170910e+01 1.024476e+01
      endloop
   endfacet
   facet normal -7.071068e-01 7.071068e-01 -9.724966e-09
      outer loop
         vertex 6.359904e+00 3.122082e+01 7.947554e+00
         vertex 6.525073e+00 3.138599e+01 7.170498e+00
         vertex 6.250000e+00 3.111091e+01 -1.387779e-14
      endloop
   endfacet
   facet normal -7.071067e-01 7.071068e-01 -1.506833e-08
      outer loop
         vertex 6.250000e+00 3.111091e+01 -1.387779e-14
         vertex 6.525073e+00 3.138599e+01 7.170498e+00
         vertex 6.848191e+00 3.170910e+01 6.444762e+00
      endloop
   endfacet
   facet normal -7.071068e-01 7.071067e-01 1.591690e-09
      outer loop
         vertex 6.250000e+00 3.111091e+01 -1.387779e-14
         vertex 6.848191e+00 3.170910e+01 6.444762e+00
         vertex 7.315137e+00 3.217605e+01 5.802066e+00
      endloop
   endfacet
   facet normal -7.071068e-01 7.071068e-01 -3.712112e-17
      outer loop
         vertex 1.013909e+01 3.500000e+01 3.500000e+01
         vertex 1.013909e+01 3.500000e+01 1.214476e+01
         vertex 6.250000e+00 3.111091e+01 3.500000e+01
      endloop
   endfacet
   facet normal -7.071068e-01 7.071068e-01 8.708955e-09
      outer loop
         vertex 6.250000e+00 3.111091e+01 3.500000e+01
         vertex 1.013909e+01 3.500000e+01 1.214476e+01
         vertex 9.349023e+00 3.420994e+01 1.206172e+01
      endloop
   endfacet
   facet normal -7.071068e-01 7.071068e-01 -5.331566e-09
      outer loop
         vertex 6.250000e+00 3.111091e+01 3.500000e+01
         vertex 9.349023e+00 3.420994e+01 1.206172e+01
         vertex 8.593488e+00 3.345440e+01 1.181624e+01
      endloop
   endfacet
   facet normal -7.071068e-01 7.071068e-01 -1.217521e-08
      outer loop
         vertex 7.315137e+00 3.217605e+01 5.802066e+00
         vertex 7.905503e+00 3.276642e+01 5.270498e+00
         vertex 6.250000e+00 3.111091e+01 -1.387779e-14
      endloop
   endfacet
   facet normal -7.071067e-01 7.071068e-01 -4.503486e-08
      outer loop
         vertex 6.250000e+00 3.111091e+01 -1.387779e-14
         vertex 7.905503e+00 3.276642e+01 5.270498e+00
         vertex 8.593488e+00 3.345440e+01 4.873290e+00
      endloop
   endfacet
   facet normal -7.071068e-01 7.071068e-01 6.320412e-17
      outer loop
         vertex 6.250000e+00 3.111091e+01 -1.387779e-14
         vertex 8.593488e+00 3.345440e+01 4.873290e+00
         vertex 1.013909e+01 3.500000e+01 -1.387779e-14
      endloop
   endfacet
   facet normal -7.071068e-01 7.071068e-01 -1.926271e-08
      outer loop
         vertex 1.013909e+01 3.500000e+01 -1.387779e-14
         vertex 8.593488e+00 3.345440e+01 4.873290e+00
         vertex 9.349023e+00 3.420994e+01 4.627801e+00
      endloop
   endfacet
   facet normal -7.071068e-01 7.071068e-01 0.000000e+00
      outer loop
         vertex 1.013909e+01 3.500000e+01 -1.387779e-14
         vertex 9.349023e+00 3.420994e+01 4.627801e+00
         vertex 1.013909e+01 3.500000e+01 4.544762e+00
      endloop
   endfacet
   facet normal -7.071067e-01 -7.071068e-01 -1.506833e-08
      outer loop
         vertex 6.848191e+00 3.829090e+01 6.444762e+00
         vertex 6.525073e+00 3.861401e+01 7.170498e+00
         vertex 6.250000e+00 3.888909e+01 0.000000e+00
      endloop
   endfacet
   facet normal -7.071068e-01 -7.071068e-01 -9.724966e-09
      outer loop
         vertex 6.525073e+00 3.861401e+01 7.170498e+00
         vertex 6.359904e+00 3.877918e+01 7.947554e+00
         vertex 6.250000e+00 3.888909e+01 0.000000e+00
      endloop
   endfacet
   facet normal -7.071072e-01 -7.071064e-01 0.000000e+00
      outer loop
         vertex 6.250000e+00 3.888909e+01 0.000000e+00
         vertex 6.359904e+00 3.877918e+01 7.947554e+00
         vertex 6.359904e+00 3.877918e+01 8.741970e+00
      endloop
   endfacet
   facet normal -7.071072e-01 -7.071064e-01 -1.752336e-17
      outer loop
         vertex 6.250000e+00 3.888909e+01 0.000000e+00
         vertex 6.359904e+00 3.877918e+01 8.741970e+00
         vertex 6.250000e+00 3.888909e+01 3.500000e+01
      endloop
   endfacet
   facet normal -7.071068e-01 -7.071068e-01 3.074427e-09
      outer loop
         vertex 6.250000e+00 3.888909e+01 3.500000e+01
         vertex 6.359904e+00 3.877918e+01 8.741970e+00
         vertex 6.525073e+00 3.861401e+01 9.519027e+00
      endloop
   endfacet
   facet normal -7.071067e-01 -7.071068e-01 4.496644e-09
      outer loop
         vertex 6.525073e+00 3.861401e+01 9.519027e+00
         vertex 6.848191e+00 3.829090e+01 1.024476e+01
         vertex 6.250000e+00 3.888909e+01 3.500000e+01
      endloop
   endfacet
   facet normal -7.071068e-01 -7.071067e-01 -4.522756e-10
      outer loop
         vertex 6.250000e+00 3.888909e+01 3.500000e+01
         vertex 6.848191e+00 3.829090e+01 1.024476e+01
         vertex 7.315137e+00 3.782395e+01 1.088746e+01
      endloop
   endfacet
   facet normal -7.071068e-01 -7.071068e-01 3.283320e-09
      outer loop
         vertex 6.250000e+00 3.888909e+01 3.500000e+01
         vertex 7.315137e+00 3.782395e+01 1.088746e+01
         vertex 7.905503e+00 3.723358e+01 1.141903e+01
      endloop
   endfacet
   facet normal -7.071067e-01 -7.071068e-01 -4.503486e-08
      outer loop
         vertex 8.593488e+00 3.654560e+01 4.873290e+00
         vertex 7.905503e+00 3.723358e+01 5.270498e+00
         vertex 6.250000e+00 3.888909e+01 0.000000e+00
      endloop
   endfacet
   facet normal -7.071068e-01 -7.071068e-01 -1.217521e-08
      outer loop
         vertex 6.250000e+00 3.888909e+01 0.000000e+00
         vertex 7.905503e+00 3.723358e+01 5.270498e+00
         vertex 7.315137e+00 3.782395e+01 5.802066e+00
      endloop
   endfacet
   facet normal -7.071068e-01 -7.071067e-01 1.591690e-09
      outer loop
         vertex 6.250000e+00 3.888909e+01 0.000000e+00
         vertex 7.315137e+00 3.782395e+01 5.802066e+00
         vertex 6.848191e+00 3.829090e+01 6.444762e+00
      endloop
   endfacet
   facet normal -7.071068e-01 -7.071068e-01 1.341744e-17
      outer loop
         vertex 1.013909e+01 3.500000e+01 1.214476e+01
         vertex 1.013909e+01 3.500000e+01 3.500000e+01
         vertex 9.349023e+00 3.579006e+01 1.206172e+01
      endloop
   endfacet
   facet normal -7.071068e-01 -7.071068e-01 1.794338e-09
      outer loop
         vertex 9.349023e+00 3.579006e+01 1.206172e+01
         vertex 1.013909e+01 3.500000e+01 3.500000e+01
         vertex 6.250000e+00 3.888909e+01 3.500000e+01
      endloop
   endfacet
   facet normal -7.071068e-01 -7.071068e-01 -5.331566e-09
      outer loop
         vertex 9.349023e+00 3.579006e+01 1.206172e+01
         vertex 6.250000e+00 3.888909e+01 3.500000e+01
         vertex 8.593488e+00 3.654560e+01 1.181624e+01
      endloop
   endfacet
   facet normal -7.071067e-01 -7.071068e-01 1.142777e-08
      outer loop
         vertex 8.593488e+00 3.654560e+01 1.181624e+01
         vertex 6.250000e+00 3.888909e+01 3.500000e+01
         vertex 7.905503e+00 3.723358e+01 1.141903e+01
      endloop
   endfacet
   facet normal -7.071068e-01 -7.071068e-01 2.265687e-08
      outer loop
         vertex 8.593488e+00 3.654560e+01 4.873290e+00
         vertex 6.250000e+00 3.888909e+01 0.000000e+00
         vertex 9.349023e+00 3.579006e+01 4.627801e+00
      endloop
   endfacet
   facet normal -7.071068e-01 -7.071068e-01 -8.893863e-09
      outer loop
         vertex 9.349023e+00 3.579006e+01 4.627801e+00
         vertex 6.250000e+00 3.888909e+01 0.000000e+00
         vertex 1.013909e+01 3.500000e+01 0.000000e+00
      endloop
   endfacet
   facet normal -7.071068e-01 -7.071068e-01 -3.753135e-16
      outer loop
         vertex 9.349023e+00 3.579006e+01 4.627801e+00
         vertex 1.013909e+01 3.500000e+01 0.000000e+00
         vertex 1.013909e+01 3.500000e+01 4.544762e+00
      endloop
   endfacet
   facet normal 0.000000e+00 -9.914449e-01 1.305262e-01
      outer loop
         vertex 1.250000e+01 2.871154e+01 2.000000e+01
         vertex 0.000000e+00 2.871154e+01 2.000000e+01
         vertex 1.250000e+01 2.837080e+01 1.741181e+01
      endloop
   endfacet
   facet normal 0.000000e+00 -9.914449e-01 1.305262e-01
      outer loop
         vertex 1.250000e+01 2.837080e+01 1.741181e+01
         vertex 0.000000e+00 2.871154e+01 2.000000e+01
         vertex 0.000000e+00 2.837080e+01 1.741181e+01
      endloop
   endfacet
   facet normal 0.000000e+00 -9.238795e-01 3.826835e-01
      outer loop
         vertex 1.250000e+01 2.837080e+01 1.741181e+01
         vertex 0.000000e+00 2.837080e+01 1.741181e+01
         vertex 1.250000e+01 2.737180e+01 1.500000e+01
      endloop
   endfacet
   facet normal 0.000000e+00 -9.238795e-01 3.826835e-01
      outer loop
         vertex 1.250000e+01 2.737180e+01 1.500000e+01
         vertex 0.000000e+00 2.837080e+01 1.741181e+01
         vertex 0.000000e+00 2.737180e+01 1.500000e+01
      endloop
   endfacet
   facet normal 0.000000e+00 -7.933534e-01 6.087614e-01
      outer loop
         vertex 1.250000e+01 2.737180e+01 1.500000e+01
         vertex 0.000000e+00 2.737180e+01 1.500000e+01
         vertex 1.250000e+01 2.578261e+01 1.292893e+01
      endloop
   endfacet
   facet normal 0.000000e+00 -7.933534e-01 6.087614e-01
      outer loop
         vertex 1.250000e+01 2.578261e+01 1.292893e+01
         vertex 0.000000e+00 2.737180e+01 1.500000e+01
         vertex 0.000000e+00 2.578261e+01 1.292893e+01
      endloop
   endfacet
   facet normal 0.000000e+00 -6.087613e-01 7.933534e-01
      outer loop
         vertex 1.250000e+01 2.578261e+01 1.292893e+01
         vertex 0.000000e+00 2.578261e+01 1.292893e+01
         vertex 1.250000e+01 2.371154e+01 1.133975e+01
      endloop
   endfacet
   facet normal 0.000000e+00 -6.087613e-01 7.933534e-01
      outer loop
         vertex 1.250000e+01 2.371154e+01 1.133975e+01
         vertex 0.000000e+00 2.578261e+01 1.292893e+01
         vertex 0.000000e+00 2.371154e+01 1.133975e+01
      endloop
   endfacet
   facet normal 0.000000e+00 -3.826835e-01 9.238795e-01
      outer loop
         vertex 1.250000e+01 2.371154e+01 1.133975e+01
         vertex 0.000000e+00 2.371154e+01 1.133975e+01
         vertex 1.250000e+01 2.129973e+01 1.034074e+01
      endloop
   endfacet
   facet normal 0.000000e+00 -3.826835e-01 9.238795e-01
      outer loop
         vertex 1.250000e+01 2.129973e+01 1.034074e+01
         vertex 0.000000e+00 2.371154e+01 1.133975e+01
         vertex 0.000000e+00 2.129973e+01 1.034074e+01
      endloop
   endfacet
   facet normal 0.000000e+00 -1.305263e-01 9.914448e-01
      outer loop
         vertex 1.250000e+01 2.129973e+01 1.034074e+01
         vertex 0.000000e+00 2.129973e+01 1.034074e+01
         vertex 1.250000e+01 1.871154e+01 1.000000e+01
      endloop
   endfacet
   facet normal 0.000000e+00 -1.305263e-01 9.914448e-01
      outer loop
         vertex 1.250000e+01 1.871154e+01 1.000000e+01
         vertex 0.000000e+00 2.129973e+01 1.034074e+01
         vertex 0.000000e+00 1.871154e+01 1.000000e+01
      endloop
   endfacet
   facet normal -0.000000e+00 9.914449e-01 1.305262e-01
      outer loop
         vertex 0.000000e+00 4.128846e+01 2.000000e+01
         vertex 1.250000e+01 4.128846e+01 2.000000e+01
         vertex 0.000000e+00 4.162920e+01 1.741181e+01
      endloop
   endfacet
   facet normal -0.000000e+00 9.914449e-01 1.305262e-01
      outer loop
         vertex 0.000000e+00 4.162920e+01 1.741181e+01
         vertex 1.250000e+01 4.128846e+01 2.000000e+01
         vertex 1.250000e+01 4.162920e+01 1.741181e+01
      endloop
   endfacet
   facet normal -0.000000e+00 9.238795e-01 3.826835e-01
      outer loop
         vertex 0.000000e+00 4.162920e+01 1.741181e+01
         vertex 1.250000e+01 4.162920e+01 1.741181e+01
         vertex 0.000000e+00 4.262820e+01 1.500000e+01
      endloop
   endfacet
   facet normal -0.000000e+00 9.238795e-01 3.826835e-01
      outer loop
         vertex 0.000000e+00 4.262820e+01 1.500000e+01
         vertex 1.250000e+01 4.162920e+01 1.741181e+01
         vertex 1.250000e+01 4.262820e+01 1.500000e+01
      endloop
   endfacet
   facet normal -0.000000e+00 7.933534e-01 6.087614e-01
      outer loop
         vertex 0.000000e+00 4.262820e+01 1.500000e+01
         vertex 1.250000e+01 4.262820e+01 1.500000e+01
         vertex 0.000000e+00 4.421739e+01 1.292893e+01
      endloop
   endfacet
   facet normal -0.000000e+00 7.933534e-01 6.087614e-01
      outer loop
         vertex 0.000000e+00 4.421739e+01 1.292893e+01
         vertex 1.250000e+01 4.262820e+01 1.500000e+01
         vertex 1.250000e+01 4.421739e+01 1.292893e+01
      endloop
   endfacet
   facet normal -0.000000e+00 6.087613e-01 7.933534e-01
      outer loop
         vertex 0.000000e+00 4.421739e+01 1.292893e+01
         vertex 1.250000e+01 4.421739e+01 1.292893e+01
         vertex 0.000000e+00 4.628846e+01 1.133975e+01
      endloop
   endfacet
   facet normal -0.000000e+00 6.087613e-01 7.933534e-01
      outer loop
         vertex 0.000000e+00 4.628846e+01 1.133975e+01
         vertex 1.250000e+01 4.421739e+01 1.292893e+01
         vertex 1.250000e+01 4.628846e+01 1.133975e+01
      endloop
   endfacet
   facet normal -0.000000e+00 3.826835e-01 9.238795e-01
      outer loop
         vertex 0.000000e+00 4.628846e+01 1.133975e+01
         vertex 1.250000e+01 4.628846e+01 1.133975e+01
         vertex 0.000000e+00 4.870027e+01 1.034074e+01
      endloop
   endfacet
   facet normal -0.000000e+00 3.826835e-01 9.238795e-01
      outer loop
         vertex 0.000000e+00 4.870027e+01 1.034074e+01
         vertex 1.250000e+01 4.628846e+01 1.133975e+01
         vertex 1.250000e+01 4.870027e+01 1.034074e+01
      endloop
   endfacet
   facet normal -0.000000e+00 1.305263e-01 9.914448e-01
      outer loop
         vertex 0.000000e+00 4.870027e+01 1.034074e+01
         vertex 1.250000e+01 4.870027e+01 1.034074e+01
         vertex 0.000000e+00 5.128846e+01 1.000000e+01
      endloop
   endfacet
   facet normal -0.000000e+00 1.305263e-01 9.914448e-01
      outer loop
         vertex 0.000000e+00 5.128846e+01 1.000000e+01
         vertex 1.250000e+01 4.870027e+01 1.034074e+01
         vertex 1.250000e+01 5.128846e+01 1.000000e+01
      endloop
   endfacet
   facet normal 0.000000e+00 -2.588183e-01 9.659260e-01
      outer loop
         vertex 1.250000e+01 2.000000e+00 1.000000e+01
         vertex 0.000000e+00 2.000000e+00 1.000000e+01
         vertex 0.000000e+00 9.999983e-01 9.732051e+00
      endloop
   endfacet
   facet normal 0.000000e+00 -2.588183e-01 9.659260e-01
      outer loop
         vertex 1.250000e+01 2.000000e+00 1.000000e+01
         vertex 0.000000e+00 9.999983e-01 9.732051e+00
         vertex 1.250000e+01 9.999983e-01 9.732051e+00
      endloop
   endfacet
   facet normal 0.000000e+00 -7.071077e-01 7.071059e-01
      outer loop
         vertex 1.250000e+01 9.999983e-01 9.732051e+00
         vertex 0.000000e+00 9.999983e-01 9.732051e+00
         vertex 0.000000e+00 2.679490e-01 9.000000e+00
      endloop
   endfacet
   facet normal 0.000000e+00 -7.071077e-01 7.071059e-01
      outer loop
         vertex 1.250000e+01 9.999983e-01 9.732051e+00
         vertex 0.000000e+00 2.679490e-01 9.000000e+00
         vertex 1.250000e+01 2.679490e-01 9.000000e+00
      endloop
   endfacet
   facet normal 0.000000e+00 -9.659258e-01 2.588190e-01
      outer loop
         vertex 1.250000e+01 2.679490e-01 9.000000e+00
         vertex 0.000000e+00 2.679490e-01 9.000000e+00
         vertex 0.000000e+00 0.000000e+00 8.000000e+00
      endloop
   endfacet
   facet normal 0.000000e+00 -9.659258e-01 2.588190e-01
      outer loop
         vertex 1.250000e+01 2.679490e-01 9.000000e+00
         vertex 0.000000e+00 0.000000e+00 8.000000e+00
         vertex 1.250000e+01 0.000000e+00 8.000000e+00
      endloop
   endfacet
   facet normal 0.000000e+00 -2.588186e-01 -9.659260e-01
      outer loop
         vertex 0.000000e+00 2.000000e+00 0.000000e+00
         vertex 1.250000e+01 2.000000e+00 0.000000e+00
         vertex 1.250000e+01 9.999983e-01 2.679492e-01
      endloop
   endfacet
   facet normal 0.000000e+00 -2.588186e-01 -9.659260e-01
      outer loop
         vertex 0.000000e+00 2.000000e+00 0.000000e+00
         vertex 1.250000e+01 9.999983e-01 2.679492e-01
         vertex 0.000000e+00 9.999983e-01 2.679492e-01
      endloop
   endfacet
   facet normal 0.000000e+00 -7.071075e-01 -7.071061e-01
      outer loop
         vertex 0.000000e+00 9.999983e-01 2.679492e-01
         vertex 1.250000e+01 9.999983e-01 2.679492e-01
         vertex 1.250000e+01 2.679490e-01 1.000000e+00
      endloop
   endfacet
   facet normal 0.000000e+00 -7.071075e-01 -7.071061e-01
      outer loop
         vertex 0.000000e+00 9.999983e-01 2.679492e-01
         vertex 1.250000e+01 2.679490e-01 1.000000e+00
         vertex 0.000000e+00 2.679490e-01 1.000000e+00
      endloop
   endfacet
   facet normal 0.000000e+00 -9.659259e-01 -2.588188e-01
      outer loop
         vertex 0.000000e+00 2.679490e-01 1.000000e+00
         vertex 1.250000e+01 2.679490e-01 1.000000e+00
         vertex 1.250000e+01 0.000000e+00 2.000000e+00
      endloop
   endfacet
   facet normal 0.000000e+00 -9.659259e-01 -2.588188e-01
      outer loop
         vertex 0.000000e+00 2.679490e-01 1.000000e+00
         vertex 1.250000e+01 0.000000e+00 2.000000e+00
         vertex 0.000000e+00 0.000000e+00 2.000000e+00
      endloop
   endfacet
   facet normal 0.000000e+00 2.588186e-01 -9.659260e-01
      outer loop
         vertex 1.250000e+01 6.800000e+01 0.000000e+00
         vertex 0.000000e+00 6.800000e+01 0.000000e+00
         vertex 0.000000e+00 6.900000e+01 2.679492e-01
      endloop
   endfacet
   facet normal 0.000000e+00 2.588186e-01 -9.659260e-01
      outer loop
         vertex 1.250000e+01 6.800000e+01 0.000000e+00
         vertex 0.000000e+00 6.900000e+01 2.679492e-01
         vertex 1.250000e+01 6.900000e+01 2.679492e-01
      endloop
   endfacet
   facet normal 0.000000e+00 7.071075e-01 -7.071061e-01
      outer loop
         vertex 1.250000e+01 6.900000e+01 2.679492e-01
         vertex 0.000000e+00 6.900000e+01 2.679492e-01
         vertex 0.000000e+00 6.973205e+01 1.000000e+00
      endloop
   endfacet
   facet normal 0.000000e+00 7.071075e-01 -7.071061e-01
      outer loop
         vertex 1.250000e+01 6.900000e+01 2.679492e-01
         vertex 0.000000e+00 6.973205e+01 1.000000e+00
         vertex 1.250000e+01 6.973205e+01 1.000000e+00
      endloop
   endfacet
   facet normal 0.000000e+00 9.659259e-01 -2.588188e-01
      outer loop
         vertex 1.250000e+01 6.973205e+01 1.000000e+00
         vertex 0.000000e+00 6.973205e+01 1.000000e+00
         vertex 0.000000e+00 7.000000e+01 2.000000e+00
      endloop
   endfacet
   facet normal 0.000000e+00 9.659259e-01 -2.588188e-01
      outer loop
         vertex 1.250000e+01 6.973205e+01 1.000000e+00
         vertex 0.000000e+00 7.000000e+01 2.000000e+00
         vertex 1.250000e+01 7.000000e+01 2.000000e+00
      endloop
   endfacet
   facet normal -0.000000e+00 2.588183e-01 9.659260e-01
      outer loop
         vertex 0.000000e+00 6.800000e+01 1.000000e+01
         vertex 1.250000e+01 6.800000e+01 1.000000e+01
         vertex 1.250000e+01 6.900000e+01 9.732051e+00
      endloop
   endfacet
   facet normal 0.000000e+00 2.588183e-01 9.659260e-01
      outer loop
         vertex 0.000000e+00 6.800000e+01 1.000000e+01
         vertex 1.250000e+01 6.900000e+01 9.732051e+00
         vertex 0.000000e+00 6.900000e+01 9.732051e+00
      endloop
   endfacet
   facet normal -0.000000e+00 7.071077e-01 7.071059e-01
      outer loop
         vertex 0.000000e+00 6.900000e+01 9.732051e+00
         vertex 1.250000e+01 6.900000e+01 9.732051e+00
         vertex 1.250000e+01 6.973205e+01 9.000000e+00
      endloop
   endfacet
   facet normal 0.000000e+00 7.071077e-01 7.071059e-01
      outer loop
         vertex 0.000000e+00 6.900000e+01 9.732051e+00
         vertex 1.250000e+01 6.973205e+01 9.000000e+00
         vertex 0.000000e+00 6.973205e+01 9.000000e+00
      endloop
   endfacet
   facet normal -0.000000e+00 9.659258e-01 2.588190e-01
      outer loop
         vertex 0.000000e+00 6.973205e+01 9.000000e+00
         vertex 1.250000e+01 6.973205e+01 9.000000e+00
         vertex 1.250000e+01 7.000000e+01 8.000000e+00
      endloop
   endfacet
   facet normal 0.000000e+00 9.659258e-01 2.588190e-01
      outer loop
         vertex 0.000000e+00 6.973205e+01 9.000000e+00
         vertex 1.250000e+01 7.000000e+01 8.000000e+00
         vertex 0.000000e+00 7.000000e+01 8.000000e+00
      endloop
   endfacet
   facet normal 0.000000e+00 -3.090171e-01 -9.510565e-01
      outer loop
         vertex 9.349023e+00 3.579006e+01 1.206172e+01
         vertex 8.593488e+00 3.654560e+01 1.181624e+01
         vertex 1.250000e+01 3.654560e+01 1.181624e+01
      endloop
   endfacet
   facet normal 0.000000e+00 -0.000000e+00 1.000000e+00
      outer loop
         vertex 1.250000e+01 3.420994e+01 4.627801e+00
         vertex 1.250000e+01 3.579006e+01 4.627801e+00
         vertex 9.349023e+00 3.579006e+01 4.627801e+00
      endloop
   endfacet
   facet normal 0.000000e+00 -3.090171e-01 9.510565e-01
      outer loop
         vertex 9.349023e+00 3.579006e+01 4.627801e+00
         vertex 1.250000e+01 3.579006e+01 4.627801e+00
         vertex 8.593488e+00 3.654560e+01 4.873290e+00
      endloop
   endfacet
   facet normal -2.125177e-02 -4.066448e-01 9.133391e-01
      outer loop
         vertex 8.593488e+00 3.654560e+01 4.873290e+00
         vertex 1.250000e+01 3.579006e+01 4.627801e+00
         vertex 1.250000e+01 3.723358e+01 5.270498e+00
      endloop
   endfacet
   facet normal 0.000000e+00 -5.000000e-01 8.660254e-01
      outer loop
         vertex 8.593488e+00 3.654560e+01 4.873290e+00
         vertex 1.250000e+01 3.723358e+01 5.270498e+00
         vertex 7.905503e+00 3.723358e+01 5.270498e+00
      endloop
   endfacet
   facet normal 0.000000e+00 -6.691306e-01 7.431448e-01
      outer loop
         vertex 7.905503e+00 3.723358e+01 5.270498e+00
         vertex 1.250000e+01 3.723358e+01 5.270498e+00
         vertex 7.315137e+00 3.782395e+01 5.802066e+00
      endloop
   endfacet
   facet normal -1.601363e-02 -7.430495e-01 6.690448e-01
      outer loop
         vertex 7.315137e+00 3.782395e+01 5.802066e+00
         vertex 1.250000e+01 3.723358e+01 5.270498e+00
         vertex 1.250000e+01 3.829090e+01 6.444762e+00
      endloop
   endfacet
   facet normal 0.000000e+00 -8.090170e-01 5.877853e-01
      outer loop
         vertex 7.315137e+00 3.782395e+01 5.802066e+00
         vertex 1.250000e+01 3.829090e+01 6.444762e+00
         vertex 6.848191e+00 3.829090e+01 6.444762e+00
      endloop
   endfacet
   facet normal 0.000000e+00 -9.135455e-01 4.067366e-01
      outer loop
         vertex 6.848191e+00 3.829090e+01 6.444762e+00
         vertex 1.250000e+01 3.829090e+01 6.444762e+00
         vertex 6.525073e+00 3.861401e+01 7.170498e+00
      endloop
   endfacet
   facet normal -1.389657e-02 -9.509647e-01 3.089872e-01
      outer loop
         vertex 6.525073e+00 3.861401e+01 7.170498e+00
         vertex 1.250000e+01 3.829090e+01 6.444762e+00
         vertex 1.250000e+01 3.877918e+01 7.947554e+00
      endloop
   endfacet
   facet normal 0.000000e+00 -9.781476e-01 2.079118e-01
      outer loop
         vertex 6.525073e+00 3.861401e+01 7.170498e+00
         vertex 1.250000e+01 3.877918e+01 7.947554e+00
         vertex 6.359904e+00 3.877918e+01 7.947554e+00
      endloop
   endfacet
   facet normal 0.000000e+00 -1.000000e+00 0.000000e+00
      outer loop
         vertex 6.359904e+00 3.877918e+01 7.947554e+00
         vertex 1.250000e+01 3.877918e+01 7.947554e+00
         vertex 6.359904e+00 3.877918e+01 8.741970e+00
      endloop
   endfacet
   facet normal -1.352284e-02 -9.944310e-01 -1.045189e-01
      outer loop
         vertex 6.359904e+00 3.877918e+01 8.741970e+00
         vertex 1.250000e+01 3.877918e+01 7.947554e+00
         vertex 1.250000e+01 3.861401e+01 9.519027e+00
      endloop
   endfacet
   facet normal 0.000000e+00 -9.781476e-01 -2.079117e-01
      outer loop
         vertex 6.359904e+00 3.877918e+01 8.741970e+00
         vertex 1.250000e+01 3.861401e+01 9.519027e+00
         vertex 6.525073e+00 3.861401e+01 9.519027e+00
      endloop
   endfacet
   facet normal -0.000000e+00 -5.877852e-01 -8.090170e-01
      outer loop
         vertex 1.250000e+01 3.654560e+01 1.181624e+01
         vertex 8.593488e+00 3.654560e+01 1.181624e+01
         vertex 1.250000e+01 3.782395e+01 1.088746e+01
      endloop
   endfacet
   facet normal -3.132950e-02 -5.230675e-01 -8.517152e-01
      outer loop
         vertex 8.593488e+00 3.654560e+01 1.181624e+01
         vertex 7.905503e+00 3.723358e+01 1.141903e+01
         vertex 1.250000e+01 3.782395e+01 1.088746e+01
      endloop
   endfacet
   facet normal -0.000000e+00 -6.691306e-01 -7.431448e-01
      outer loop
         vertex 1.250000e+01 3.782395e+01 1.088746e+01
         vertex 7.905503e+00 3.723358e+01 1.141903e+01
         vertex 7.315137e+00 3.782395e+01 1.088746e+01
      endloop
   endfacet
   facet normal -0.000000e+00 -8.660255e-01 -4.999999e-01
      outer loop
         vertex 1.250000e+01 3.782395e+01 1.088746e+01
         vertex 7.315137e+00 3.782395e+01 1.088746e+01
         vertex 1.250000e+01 3.861401e+01 9.519027e+00
      endloop
   endfacet
   facet normal -2.702565e-02 -8.179565e-01 -5.746449e-01
      outer loop
         vertex 1.250000e+01 3.861401e+01 9.519027e+00
         vertex 7.315137e+00 3.782395e+01 1.088746e+01
         vertex 6.848191e+00 3.829090e+01 1.024476e+01
      endloop
   endfacet
   facet normal -0.000000e+00 -9.135456e-01 -4.067364e-01
      outer loop
         vertex 1.250000e+01 3.861401e+01 9.519027e+00
         vertex 6.848191e+00 3.829090e+01 1.024476e+01
         vertex 6.525073e+00 3.861401e+01 9.519027e+00
      endloop
   endfacet
   facet normal -4.202042e-02 -1.459054e-01 -9.884057e-01
      outer loop
         vertex 9.349023e+00 3.579006e+01 1.206172e+01
         vertex 1.250000e+01 3.654560e+01 1.181624e+01
         vertex 1.013909e+01 3.500000e+01 1.214476e+01
      endloop
   endfacet
   facet normal -2.019949e-16 -2.079114e-01 -9.781477e-01
      outer loop
         vertex 1.013909e+01 3.500000e+01 1.214476e+01
         vertex 1.250000e+01 3.654560e+01 1.181624e+01
         vertex 1.250000e+01 3.500000e+01 1.214476e+01
      endloop
   endfacet
   facet normal 1.015533e-16 1.045278e-01 -9.945220e-01
      outer loop
         vertex 1.013909e+01 3.500000e+01 1.214476e+01
         vertex 1.250000e+01 3.500000e+01 1.214476e+01
         vertex 9.349023e+00 3.420994e+01 1.206172e+01
      endloop
   endfacet
   facet normal -2.634440e-02 2.078393e-01 -9.778082e-01
      outer loop
         vertex 9.349023e+00 3.420994e+01 1.206172e+01
         vertex 1.250000e+01 3.500000e+01 1.214476e+01
         vertex 1.250000e+01 3.345440e+01 1.181624e+01
      endloop
   endfacet
   facet normal 0.000000e+00 3.090171e-01 -9.510565e-01
      outer loop
         vertex 9.349023e+00 3.420994e+01 1.206172e+01
         vertex 1.250000e+01 3.345440e+01 1.181624e+01
         vertex 8.593488e+00 3.345440e+01 1.181624e+01
      endloop
   endfacet
   facet normal 0.000000e+00 5.000000e-01 -8.660254e-01
      outer loop
         vertex 8.593488e+00 3.345440e+01 1.181624e+01
         vertex 1.250000e+01 3.345440e+01 1.181624e+01
         vertex 7.905503e+00 3.276642e+01 1.141903e+01
      endloop
   endfacet
   facet normal -1.807065e-02 5.876892e-01 -8.088849e-01
      outer loop
         vertex 7.905503e+00 3.276642e+01 1.141903e+01
         vertex 1.250000e+01 3.345440e+01 1.181624e+01
         vertex 1.250000e+01 3.217605e+01 1.088746e+01
      endloop
   endfacet
   facet normal 0.000000e+00 6.691306e-01 -7.431448e-01
      outer loop
         vertex 7.905503e+00 3.276642e+01 1.141903e+01
         vertex 1.250000e+01 3.217605e+01 1.088746e+01
         vertex 7.315137e+00 3.217605e+01 1.088746e+01
      endloop
   endfacet
   facet normal 0.000000e+00 8.090170e-01 -5.877853e-01
      outer loop
         vertex 7.315137e+00 3.217605e+01 1.088746e+01
         vertex 1.250000e+01 3.217605e+01 1.088746e+01
         vertex 6.848191e+00 3.170910e+01 1.024476e+01
      endloop
   endfacet
   facet normal -1.469093e-02 8.659320e-01 -4.999459e-01
      outer loop
         vertex 6.848191e+00 3.170910e+01 1.024476e+01
         vertex 1.250000e+01 3.217605e+01 1.088746e+01
         vertex 1.250000e+01 3.138599e+01 9.519027e+00
      endloop
   endfacet
   facet normal 0.000000e+00 9.135456e-01 -4.067364e-01
      outer loop
         vertex 6.848191e+00 3.170910e+01 1.024476e+01
         vertex 1.250000e+01 3.138599e+01 9.519027e+00
         vertex 6.525073e+00 3.138599e+01 9.519027e+00
      endloop
   endfacet
   facet normal 0.000000e+00 9.781476e-01 -2.079117e-01
      outer loop
         vertex 6.525073e+00 3.138599e+01 9.519027e+00
         vertex 1.250000e+01 3.138599e+01 9.519027e+00
         vertex 6.359904e+00 3.122082e+01 8.741970e+00
      endloop
   endfacet
   facet normal -6.771148e-03 9.876657e-01 -1.564310e-01
      outer loop
         vertex 6.359904e+00 3.122082e+01 8.741970e+00
         vertex 1.250000e+01 3.138599e+01 9.519027e+00
         vertex 1.250000e+01 3.120000e+01 8.344762e+00
      endloop
   endfacet
   facet normal 3.390306e-03 9.999943e-01 0.000000e+00
      outer loop
         vertex 6.359904e+00 3.122082e+01 8.741970e+00
         vertex 1.250000e+01 3.120000e+01 8.344762e+00
         vertex 6.359904e+00 3.122082e+01 7.947554e+00
      endloop
   endfacet
   facet normal -0.000000e+00 9.986295e-01 5.233627e-02
      outer loop
         vertex 6.359904e+00 3.122082e+01 7.947554e+00
         vertex 1.250000e+01 3.120000e+01 8.344762e+00
         vertex 1.250000e+01 3.122082e+01 7.947554e+00
      endloop
   endfacet
   facet normal -0.000000e+00 9.781476e-01 2.079118e-01
      outer loop
         vertex 6.359904e+00 3.122082e+01 7.947554e+00
         vertex 1.250000e+01 3.122082e+01 7.947554e+00
         vertex 6.525073e+00 3.138599e+01 7.170498e+00
      endloop
   endfacet
   facet normal -1.389657e-02 9.509647e-01 3.089872e-01
      outer loop
         vertex 6.525073e+00 3.138599e+01 7.170498e+00
         vertex 1.250000e+01 3.122082e+01 7.947554e+00
         vertex 1.250000e+01 3.170910e+01 6.444762e+00
      endloop
   endfacet
   facet normal 0.000000e+00 9.135455e-01 4.067366e-01
      outer loop
         vertex 6.525073e+00 3.138599e+01 7.170498e+00
         vertex 1.250000e+01 3.170910e+01 6.444762e+00
         vertex 6.848191e+00 3.170910e+01 6.444762e+00
      endloop
   endfacet
   facet normal 0.000000e+00 7.431448e-01 6.691306e-01
      outer loop
         vertex 1.250000e+01 3.276642e+01 5.270498e+00
         vertex 7.905503e+00 3.276642e+01 5.270498e+00
         vertex 1.250000e+01 3.170910e+01 6.444762e+00
      endloop
   endfacet
   facet normal -2.864523e-02 6.845241e-01 7.284273e-01
      outer loop
         vertex 1.250000e+01 3.170910e+01 6.444762e+00
         vertex 7.905503e+00 3.276642e+01 5.270498e+00
         vertex 7.315137e+00 3.217605e+01 5.802066e+00
      endloop
   endfacet
   facet normal 0.000000e+00 8.090170e-01 5.877853e-01
      outer loop
         vertex 1.250000e+01 3.170910e+01 6.444762e+00
         vertex 7.315137e+00 3.217605e+01 5.802066e+00
         vertex 6.848191e+00 3.170910e+01 6.444762e+00
      endloop
   endfacet
   facet normal -1.029018e-01 -2.051992e-01 9.732957e-01
      outer loop
         vertex 9.349023e+00 3.579006e+01 4.627801e+00
         vertex 1.013909e+01 3.500000e+01 4.544762e+00
         vertex 1.250000e+01 3.420994e+01 4.627801e+00
      endloop
   endfacet
   facet normal 0.000000e+00 1.045284e-01 9.945219e-01
      outer loop
         vertex 1.250000e+01 3.420994e+01 4.627801e+00
         vertex 1.013909e+01 3.500000e+01 4.544762e+00
         vertex 9.349023e+00 3.420994e+01 4.627801e+00
      endloop
   endfacet
   facet normal 0.000000e+00 4.067367e-01 9.135454e-01
      outer loop
         vertex 1.250000e+01 3.420994e+01 4.627801e+00
         vertex 9.349023e+00 3.420994e+01 4.627801e+00
         vertex 1.250000e+01 3.276642e+01 5.270498e+00
      endloop
   endfacet
   facet normal -3.551147e-02 3.407662e-01 9.394771e-01
      outer loop
         vertex 1.250000e+01 3.276642e+01 5.270498e+00
         vertex 9.349023e+00 3.420994e+01 4.627801e+00
         vertex 8.593488e+00 3.345440e+01 4.873290e+00
      endloop
   endfacet
   facet normal 0.000000e+00 5.000000e-01 8.660254e-01
      outer loop
         vertex 1.250000e+01 3.276642e+01 5.270498e+00
         vertex 8.593488e+00 3.345440e+01 4.873290e+00
         vertex 7.905503e+00 3.276642e+01 5.270498e+00
      endloop
   endfacet
   facet normal 0.000000e+00 -5.000000e-01 8.660254e-01
      outer loop
         vertex 3.906512e+00 3.654560e+01 4.873290e+00
         vertex 4.594497e+00 3.723358e+01 5.270498e+00
         vertex 0.000000e+00 3.723358e+01 5.270498e+00
      endloop
   endfacet
   facet normal 0.000000e+00 -6.691306e-01 -7.431448e-01
      outer loop
         vertex 0.000000e+00 3.782395e+01 1.088746e+01
         vertex 5.184863e+00 3.782395e+01 1.088746e+01
         vertex 4.594497e+00 3.723358e+01 1.141903e+01
      endloop
   endfacet
   facet normal 1.807065e-02 -5.876892e-01 -8.088849e-01
      outer loop
         vertex 0.000000e+00 3.782395e+01 1.088746e+01
         vertex 4.594497e+00 3.723358e+01 1.141903e+01
         vertex 0.000000e+00 3.654560e+01 1.181624e+01
      endloop
   endfacet
   facet normal -0.000000e+00 -8.090170e-01 -5.877853e-01
      outer loop
         vertex 5.184863e+00 3.782395e+01 1.088746e+01
         vertex 0.000000e+00 3.782395e+01 1.088746e+01
         vertex 5.651809e+00 3.829090e+01 1.024476e+01
      endloop
   endfacet
   facet normal 1.469093e-02 -8.659320e-01 -4.999459e-01
      outer loop
         vertex 5.651809e+00 3.829090e+01 1.024476e+01
         vertex 0.000000e+00 3.782395e+01 1.088746e+01
         vertex 0.000000e+00 3.861401e+01 9.519027e+00
      endloop
   endfacet
   facet normal 0.000000e+00 -9.135456e-01 -4.067364e-01
      outer loop
         vertex 5.651809e+00 3.829090e+01 1.024476e+01
         vertex 0.000000e+00 3.861401e+01 9.519027e+00
         vertex 5.974928e+00 3.861401e+01 9.519027e+00
      endloop
   endfacet
   facet normal -0.000000e+00 -9.781476e-01 -2.079117e-01
      outer loop
         vertex 5.974928e+00 3.861401e+01 9.519027e+00
         vertex 0.000000e+00 3.861401e+01 9.519027e+00
         vertex 6.140096e+00 3.877918e+01 8.741970e+00
      endloop
   endfacet
   facet normal 1.352284e-02 -9.944310e-01 -1.045189e-01
      outer loop
         vertex 6.140096e+00 3.877918e+01 8.741970e+00
         vertex 0.000000e+00 3.861401e+01 9.519027e+00
         vertex 0.000000e+00 3.877918e+01 7.947554e+00
      endloop
   endfacet
   facet normal 0.000000e+00 -1.000000e+00 -0.000000e+00
      outer loop
         vertex 6.140096e+00 3.877918e+01 8.741970e+00
         vertex 0.000000e+00 3.877918e+01 7.947554e+00
         vertex 6.140096e+00 3.877918e+01 7.947554e+00
      endloop
   endfacet
   facet normal 0.000000e+00 -9.781476e-01 2.079118e-01
      outer loop
         vertex 6.140096e+00 3.877918e+01 7.947554e+00
         vertex 0.000000e+00 3.877918e+01 7.947554e+00
         vertex 5.974928e+00 3.861401e+01 7.170498e+00
      endloop
   endfacet
   facet normal 1.389657e-02 -9.509647e-01 3.089872e-01
      outer loop
         vertex 5.974928e+00 3.861401e+01 7.170498e+00
         vertex 0.000000e+00 3.877918e+01 7.947554e+00
         vertex 0.000000e+00 3.829090e+01 6.444762e+00
      endloop
   endfacet
   facet normal 0.000000e+00 -9.135455e-01 4.067366e-01
      outer loop
         vertex 5.974928e+00 3.861401e+01 7.170498e+00
         vertex 0.000000e+00 3.829090e+01 6.444762e+00
         vertex 5.651809e+00 3.829090e+01 6.444762e+00
      endloop
   endfacet
   facet normal 0.000000e+00 -7.431448e-01 6.691306e-01
      outer loop
         vertex 0.000000e+00 3.723358e+01 5.270498e+00
         vertex 4.594497e+00 3.723358e+01 5.270498e+00
         vertex 0.000000e+00 3.829090e+01 6.444762e+00
      endloop
   endfacet
   facet normal 2.864523e-02 -6.845241e-01 7.284273e-01
      outer loop
         vertex 0.000000e+00 3.829090e+01 6.444762e+00
         vertex 4.594497e+00 3.723358e+01 5.270498e+00
         vertex 5.184863e+00 3.782395e+01 5.802066e+00
      endloop
   endfacet
   facet normal 0.000000e+00 -8.090170e-01 5.877853e-01
      outer loop
         vertex 0.000000e+00 3.829090e+01 6.444762e+00
         vertex 5.184863e+00 3.782395e+01 5.802066e+00
         vertex 5.651809e+00 3.829090e+01 6.444762e+00
      endloop
   endfacet
   facet normal 3.551147e-02 -3.407662e-01 9.394771e-01
      outer loop
         vertex 3.906512e+00 3.654560e+01 4.873290e+00
         vertex 0.000000e+00 3.723358e+01 5.270498e+00
         vertex 3.150977e+00 3.579006e+01 4.627801e+00
      endloop
   endfacet
   facet normal 0.000000e+00 -4.067367e-01 9.135454e-01
      outer loop
         vertex 3.150977e+00 3.579006e+01 4.627801e+00
         vertex 0.000000e+00 3.723358e+01 5.270498e+00
         vertex 0.000000e+00 3.579006e+01 4.627801e+00
      endloop
   endfacet
   facet normal 0.000000e+00 -1.045284e-01 9.945219e-01
      outer loop
         vertex 3.150977e+00 3.579006e+01 4.627801e+00
         vertex 0.000000e+00 3.579006e+01 4.627801e+00
         vertex 2.360913e+00 3.500000e+01 4.544762e+00
      endloop
   endfacet
   facet normal 3.515070e-02 0.000000e+00 9.993820e-01
      outer loop
         vertex 2.360913e+00 3.500000e+01 4.544762e+00
         vertex 0.000000e+00 3.579006e+01 4.627801e+00
         vertex 0.000000e+00 3.420994e+01 4.627801e+00
      endloop
   endfacet
   facet normal 0.000000e+00 1.045284e-01 9.945219e-01
      outer loop
         vertex 2.360913e+00 3.500000e+01 4.544762e+00
         vertex 0.000000e+00 3.420994e+01 4.627801e+00
         vertex 3.150977e+00 3.420994e+01 4.627801e+00
      endloop
   endfacet
   facet normal 0.000000e+00 3.090171e-01 9.510565e-01
      outer loop
         vertex 3.150977e+00 3.420994e+01 4.627801e+00
         vertex 0.000000e+00 3.420994e+01 4.627801e+00
         vertex 3.906512e+00 3.345440e+01 4.873290e+00
      endloop
   endfacet
   facet normal 2.125177e-02 4.066448e-01 9.133391e-01
      outer loop
         vertex 3.906512e+00 3.345440e+01 4.873290e+00
         vertex 0.000000e+00 3.420994e+01 4.627801e+00
         vertex 0.000000e+00 3.276642e+01 5.270498e+00
      endloop
   endfacet
   facet normal 0.000000e+00 5.000000e-01 8.660254e-01
      outer loop
         vertex 3.906512e+00 3.345440e+01 4.873290e+00
         vertex 0.000000e+00 3.276642e+01 5.270498e+00
         vertex 4.594497e+00 3.276642e+01 5.270498e+00
      endloop
   endfacet
   facet normal 0.000000e+00 6.691306e-01 7.431448e-01
      outer loop
         vertex 4.594497e+00 3.276642e+01 5.270498e+00
         vertex 0.000000e+00 3.276642e+01 5.270498e+00
         vertex 5.184863e+00 3.217605e+01 5.802066e+00
      endloop
   endfacet
   facet normal 1.601363e-02 7.430495e-01 6.690448e-01
      outer loop
         vertex 5.184863e+00 3.217605e+01 5.802066e+00
         vertex 0.000000e+00 3.276642e+01 5.270498e+00
         vertex 0.000000e+00 3.170910e+01 6.444762e+00
      endloop
   endfacet
   facet normal 0.000000e+00 8.090170e-01 5.877853e-01
      outer loop
         vertex 5.184863e+00 3.217605e+01 5.802066e+00
         vertex 0.000000e+00 3.170910e+01 6.444762e+00
         vertex 5.651809e+00 3.170910e+01 6.444762e+00
      endloop
   endfacet
   facet normal 0.000000e+00 9.135455e-01 4.067366e-01
      outer loop
         vertex 5.651809e+00 3.170910e+01 6.444762e+00
         vertex 0.000000e+00 3.170910e+01 6.444762e+00
         vertex 5.974928e+00 3.138599e+01 7.170498e+00
      endloop
   endfacet
   facet normal 1.389657e-02 9.509647e-01 3.089872e-01
      outer loop
         vertex 5.974928e+00 3.138599e+01 7.170498e+00
         vertex 0.000000e+00 3.170910e+01 6.444762e+00
         vertex 0.000000e+00 3.122082e+01 7.947554e+00
      endloop
   endfacet
   facet normal 0.000000e+00 9.781476e-01 2.079118e-01
      outer loop
         vertex 5.974928e+00 3.138599e+01 7.170498e+00
         vertex 0.000000e+00 3.122082e+01 7.947554e+00
         vertex 6.140096e+00 3.122082e+01 7.947554e+00
      endloop
   endfacet
   facet normal 0.000000e+00 1.000000e+00 -0.000000e+00
      outer loop
         vertex 6.140096e+00 3.122082e+01 7.947554e+00
         vertex 0.000000e+00 3.122082e+01 7.947554e+00
         vertex 6.140096e+00 3.122082e+01 8.741970e+00
      endloop
   endfacet
   facet normal 1.352284e-02 9.944310e-01 -1.045189e-01
      outer loop
         vertex 6.140096e+00 3.122082e+01 8.741970e+00
         vertex 0.000000e+00 3.122082e+01 7.947554e+00
         vertex 0.000000e+00 3.138599e+01 9.519027e+00
      endloop
   endfacet
   facet normal 0.000000e+00 9.781476e-01 -2.079117e-01
      outer loop
         vertex 6.140096e+00 3.122082e+01 8.741970e+00
         vertex 0.000000e+00 3.138599e+01 9.519027e+00
         vertex 5.974928e+00 3.138599e+01 9.519027e+00
      endloop
   endfacet
   facet normal 0.000000e+00 5.877852e-01 -8.090170e-01
      outer loop
         vertex 0.000000e+00 3.217605e+01 1.088746e+01
         vertex 0.000000e+00 3.345440e+01 1.181624e+01
         vertex 3.906512e+00 3.345440e+01 1.181624e+01
      endloop
   endfacet
   facet normal 3.132950e-02 5.230675e-01 -8.517152e-01
      outer loop
         vertex 3.906512e+00 3.345440e+01 1.181624e+01
         vertex 4.594497e+00 3.276642e+01 1.141903e+01
         vertex 0.000000e+00 3.217605e+01 1.088746e+01
      endloop
   endfacet
   facet normal 0.000000e+00 6.691306e-01 -7.431448e-01
      outer loop
         vertex 0.000000e+00 3.217605e+01 1.088746e+01
         vertex 4.594497e+00 3.276642e+01 1.141903e+01
         vertex 5.184863e+00 3.217605e+01 1.088746e+01
      endloop
   endfacet
   facet normal 0.000000e+00 8.660255e-01 -4.999999e-01
      outer loop
         vertex 0.000000e+00 3.217605e+01 1.088746e+01
         vertex 5.184863e+00 3.217605e+01 1.088746e+01
         vertex 0.000000e+00 3.138599e+01 9.519027e+00
      endloop
   endfacet
   facet normal 2.702565e-02 8.179565e-01 -5.746449e-01
      outer loop
         vertex 0.000000e+00 3.138599e+01 9.519027e+00
         vertex 5.184863e+00 3.217605e+01 1.088746e+01
         vertex 5.651809e+00 3.170910e+01 1.024476e+01
      endloop
   endfacet
   facet normal 0.000000e+00 9.135456e-01 -4.067364e-01
      outer loop
         vertex 0.000000e+00 3.138599e+01 9.519027e+00
         vertex 5.651809e+00 3.170910e+01 1.024476e+01
         vertex 5.974928e+00 3.138599e+01 9.519027e+00
      endloop
   endfacet
   facet normal 0.000000e+00 -5.000000e-01 -8.660254e-01
      outer loop
         vertex 4.594497e+00 3.723358e+01 1.141903e+01
         vertex 3.906512e+00 3.654560e+01 1.181624e+01
         vertex 0.000000e+00 3.654560e+01 1.181624e+01
      endloop
   endfacet
   facet normal 0.000000e+00 -3.090171e-01 -9.510565e-01
      outer loop
         vertex 0.000000e+00 3.654560e+01 1.181624e+01
         vertex 3.906512e+00 3.654560e+01 1.181624e+01
         vertex 3.150977e+00 3.579006e+01 1.206172e+01
      endloop
   endfacet
   facet normal 2.634440e-02 -2.078393e-01 -9.778082e-01
      outer loop
         vertex 0.000000e+00 3.654560e+01 1.181624e+01
         vertex 3.150977e+00 3.579006e+01 1.206172e+01
         vertex 0.000000e+00 3.500000e+01 1.214476e+01
      endloop
   endfacet
   facet normal 6.826295e-17 -1.045278e-01 -9.945220e-01
      outer loop
         vertex 0.000000e+00 3.500000e+01 1.214476e+01
         vertex 3.150977e+00 3.579006e+01 1.206172e+01
         vertex 2.360913e+00 3.500000e+01 1.214476e+01
      endloop
   endfacet
   facet normal -1.357787e-16 2.079114e-01 -9.781477e-01
      outer loop
         vertex 0.000000e+00 3.500000e+01 1.214476e+01
         vertex 2.360913e+00 3.500000e+01 1.214476e+01
         vertex 0.000000e+00 3.345440e+01 1.181624e+01
      endloop
   endfacet
   facet normal 4.202042e-02 1.459054e-01 -9.884057e-01
      outer loop
         vertex 0.000000e+00 3.345440e+01 1.181624e+01
         vertex 2.360913e+00 3.500000e+01 1.214476e+01
         vertex 3.150977e+00 3.420994e+01 1.206172e+01
      endloop
   endfacet
   facet normal 0.000000e+00 3.090171e-01 -9.510565e-01
      outer loop
         vertex 0.000000e+00 3.345440e+01 1.181624e+01
         vertex 3.150977e+00 3.420994e+01 1.206172e+01
         vertex 3.906512e+00 3.345440e+01 1.181624e+01
      endloop
   endfacet
endsolid