solid batterie
   facet normal 0.000000e+00 0.000000e+00 1.000000e+00
      outer loop
         vertex 7.293869e+00 1.500000e+01 7.891689e+00
         vertex 3.656562e+00 1.500000e+01 7.891689e+00
         vertex 7.293869e+00 0.000000e+00 7.891689e+00
      endloop
   endfacet
   facet normal 0.000000e+00 0.000000e+00 1.000000e+00
      outer loop
         vertex 7.293869e+00 0.000000e+00 7.891689e+00
         vertex 3.656562e+00 1.500000e+01 7.891689e+00
         vertex 3.656562e+00 0.000000e+00 7.891689e+00
      endloop
   endfacet
   facet normal 8.660254e-01 0.000000e+00 5.000000e-01
      outer loop
         vertex 9.112522e+00 1.500000e+01 4.741689e+00
         vertex 7.293869e+00 1.500000e+01 7.891689e+00
         vertex 9.112522e+00 0.000000e+00 4.741689e+00
      endloop
   endfacet
   facet normal 8.660254e-01 0.000000e+00 5.000000e-01
      outer loop
         vertex 9.112522e+00 0.000000e+00 4.741689e+00
         vertex 7.293869e+00 1.500000e+01 7.891689e+00
         vertex 7.293869e+00 0.000000e+00 7.891689e+00
      endloop
   endfacet
   facet normal 8.660254e-01 0.000000e+00 -5.000000e-01
      outer loop
         vertex 7.293869e+00 1.500000e+01 1.591689e+00
         vertex 9.112522e+00 1.500000e+01 4.741689e+00
         vertex 7.293869e+00 0.000000e+00 1.591689e+00
      endloop
   endfacet
   facet normal 8.660254e-01 0.000000e+00 -5.000000e-01
      outer loop
         vertex 7.293869e+00 0.000000e+00 1.591689e+00
         vertex 9.112522e+00 1.500000e+01 4.741689e+00
         vertex 9.112522e+00 0.000000e+00 4.741689e+00
      endloop
   endfacet
   facet normal 0.000000e+00 0.000000e+00 -1.000000e+00
      outer loop
         vertex 3.656562e+00 1.500000e+01 1.591689e+00
         vertex 7.293869e+00 1.500000e+01 1.591689e+00
         vertex 3.656562e+00 0.000000e+00 1.591689e+00
      endloop
   endfacet
   facet normal 0.000000e+00 0.000000e+00 -1.000000e+00
      outer loop
         vertex 3.656562e+00 0.000000e+00 1.591689e+00
         vertex 7.293869e+00 1.500000e+01 1.591689e+00
         vertex 7.293869e+00 0.000000e+00 1.591689e+00
      endloop
   endfacet
   facet normal -8.660254e-01 1.807004e-18 -5.000000e-01
      outer loop
         vertex 1.837909e+00 1.500000e+01 4.741689e+00
         vertex 3.656562e+00 1.500000e+01 1.591689e+00
         vertex 1.837909e+00 0.000000e+00 4.741689e+00
      endloop
   endfacet
   facet normal -8.660254e-01 0.000000e+00 -5.000000e-01
      outer loop
         vertex 1.837909e+00 0.000000e+00 4.741689e+00
         vertex 3.656562e+00 1.500000e+01 1.591689e+00
         vertex 3.656562e+00 0.000000e+00 1.591689e+00
      endloop
   endfacet
   facet normal -8.660254e-01 0.000000e+00 5.000000e-01
      outer loop
         vertex 3.656562e+00 1.500000e+01 7.891689e+00
         vertex 1.837909e+00 1.500000e+01 4.741689e+00
         vertex 3.656562e+00 0.000000e+00 7.891689e+00
      endloop
   endfacet
   facet normal -8.660254e-01 0.000000e+00 5.000000e-01
      outer loop
         vertex 3.656562e+00 0.000000e+00 7.891689e+00
         vertex 1.837909e+00 1.500000e+01 4.741689e+00
         vertex 1.837909e+00 0.000000e+00 4.741689e+00
      endloop
   endfacet
   facet normal 0.000000e+00 -1.000000e+00 0.000000e+00
      outer loop
         vertex 1.837909e+00 0.000000e+00 4.741689e+00
         vertex 3.656562e+00 0.000000e+00 1.591689e+00
         vertex 3.656562e+00 0.000000e+00 7.891689e+00
      endloop
   endfacet
   facet normal 0.000000e+00 -1.000000e+00 0.000000e+00
      outer loop
         vertex 3.656562e+00 0.000000e+00 7.891689e+00
         vertex 3.656562e+00 0.000000e+00 1.591689e+00
         vertex 7.293869e+00 0.000000e+00 1.591689e+00
      endloop
   endfacet
   facet normal 0.000000e+00 -1.000000e+00 0.000000e+00
      outer loop
         vertex 3.656562e+00 0.000000e+00 7.891689e+00
         vertex 7.293869e+00 0.000000e+00 1.591689e+00
         vertex 7.293869e+00 0.000000e+00 7.891689e+00
      endloop
   endfacet
   facet normal 0.000000e+00 -1.000000e+00 0.000000e+00
      outer loop
         vertex 7.293869e+00 0.000000e+00 7.891689e+00
         vertex 7.293869e+00 0.000000e+00 1.591689e+00
         vertex 9.112522e+00 0.000000e+00 4.741689e+00
      endloop
   endfacet
   facet normal 0.000000e+00 1.000000e+00 -0.000000e+00
      outer loop
         vertex 2.725216e+00 2.500000e+01 1.991689e+00
         vertex 1.001172e-04 2.500000e+01 4.741689e+00
         vertex 2.725216e+00 2.500000e+01 7.491689e+00
      endloop
   endfacet
   facet normal 0.000000e+00 1.000000e+00 -0.000000e+00
      outer loop
         vertex 2.725216e+00 2.500000e+01 7.491689e+00
         vertex 1.001172e-04 2.500000e+01 4.741689e+00
         vertex 2.737658e+00 2.500000e+01 9.483278e+00
      endloop
   endfacet
   facet normal 0.000000e+00 1.000000e+00 0.000000e+00
      outer loop
         vertex 2.725216e+00 2.500000e+01 7.491689e+00
         vertex 2.737658e+00 2.500000e+01 9.483278e+00
         vertex 8.225216e+00 2.500000e+01 7.491689e+00
      endloop
   endfacet
   facet normal -0.000000e+00 1.000000e+00 0.000000e+00
      outer loop
         vertex 2.737658e+00 2.500000e+01 9.483278e+00
         vertex 8.212773e+00 2.500000e+01 9.483278e+00
         vertex 8.225216e+00 2.500000e+01 7.491689e+00
      endloop
   endfacet
   facet normal -0.000000e+00 1.000000e+00 -0.000000e+00
      outer loop
         vertex 8.225216e+00 2.500000e+01 7.491689e+00
         vertex 8.212773e+00 2.500000e+01 9.483278e+00
         vertex 1.095033e+01 2.500000e+01 4.741689e+00
      endloop
   endfacet
   facet normal 0.000000e+00 1.000000e+00 0.000000e+00
      outer loop
         vertex 8.225216e+00 2.500000e+01 7.491689e+00
         vertex 1.095033e+01 2.500000e+01 4.741689e+00
         vertex 8.225216e+00 2.500000e+01 1.991689e+00
      endloop
   endfacet
   facet normal -0.000000e+00 1.000000e+00 0.000000e+00
      outer loop
         vertex 8.225216e+00 2.500000e+01 1.991689e+00
         vertex 1.095033e+01 2.500000e+01 4.741689e+00
         vertex 8.212773e+00 2.500000e+01 1.001172e-04
      endloop
   endfacet
   facet normal 0.000000e+00 1.000000e+00 0.000000e+00
      outer loop
         vertex 8.225216e+00 2.500000e+01 1.991689e+00
         vertex 8.212773e+00 2.500000e+01 1.001172e-04
         vertex 2.725216e+00 2.500000e+01 1.991689e+00
      endloop
   endfacet
   facet normal 0.000000e+00 1.000000e+00 0.000000e+00
      outer loop
         vertex 2.725216e+00 2.500000e+01 1.991689e+00
         vertex 8.212773e+00 2.500000e+01 1.001172e-04
         vertex 2.737658e+00 2.500000e+01 1.001172e-04
      endloop
   endfacet
   facet normal 0.000000e+00 1.000000e+00 0.000000e+00
      outer loop
         vertex 2.725216e+00 2.500000e+01 1.991689e+00
         vertex 2.737658e+00 2.500000e+01 1.001172e-04
         vertex 1.001172e-04 2.500000e+01 4.741689e+00
      endloop
   endfacet
   facet normal -8.552606e-01 -1.571805e-01 -4.937849e-01
      outer loop
         vertex 2.737658e+00 2.500000e+01 1.001172e-04
         vertex 3.656562e+00 1.500000e+01 1.591689e+00
         vertex 1.001172e-04 2.500000e+01 4.741689e+00
      endloop
   endfacet
   facet normal -8.552606e-01 -1.571805e-01 -4.937849e-01
      outer loop
         vertex 1.001172e-04 2.500000e+01 4.741689e+00
         vertex 3.656562e+00 1.500000e+01 1.591689e+00
         vertex 1.837909e+00 1.500000e+01 4.741689e+00
      endloop
   endfacet
   facet normal -0.000000e+00 -1.571805e-01 -9.875699e-01
      outer loop
         vertex 8.212773e+00 2.500000e+01 1.001172e-04
         vertex 7.293869e+00 1.500000e+01 1.591689e+00
         vertex 2.737658e+00 2.500000e+01 1.001172e-04
      endloop
   endfacet
   facet normal 0.000000e+00 -1.571805e-01 -9.875699e-01
      outer loop
         vertex 2.737658e+00 2.500000e+01 1.001172e-04
         vertex 7.293869e+00 1.500000e+01 1.591689e+00
         vertex 3.656562e+00 1.500000e+01 1.591689e+00
      endloop
   endfacet
   facet normal -8.552606e-01 -1.571805e-01 4.937849e-01
      outer loop
         vertex 1.001172e-04 2.500000e+01 4.741689e+00
         vertex 1.837909e+00 1.500000e+01 4.741689e+00
         vertex 2.737658e+00 2.500000e+01 9.483278e+00
      endloop
   endfacet
   facet normal -8.552606e-01 -1.571805e-01 4.937849e-01
      outer loop
         vertex 2.737658e+00 2.500000e+01 9.483278e+00
         vertex 1.837909e+00 1.500000e+01 4.741689e+00
         vertex 3.656562e+00 1.500000e+01 7.891689e+00
      endloop
   endfacet
   facet normal 0.000000e+00 -1.571805e-01 9.875699e-01
      outer loop
         vertex 2.737658e+00 2.500000e+01 9.483278e+00
         vertex 3.656562e+00 1.500000e+01 7.891689e+00
         vertex 8.212773e+00 2.500000e+01 9.483278e+00
      endloop
   endfacet
   facet normal 0.000000e+00 -1.571805e-01 9.875699e-01
      outer loop
         vertex 8.212773e+00 2.500000e+01 9.483278e+00
         vertex 3.656562e+00 1.500000e+01 7.891689e+00
         vertex 7.293869e+00 1.500000e+01 7.891689e+00
      endloop
   endfacet
   facet normal 8.552606e-01 -1.571805e-01 4.937849e-01
      outer loop
         vertex 8.212773e+00 2.500000e+01 9.483278e+00
         vertex 7.293869e+00 1.500000e+01 7.891689e+00
         vertex 1.095033e+01 2.500000e+01 4.741689e+00
      endloop
   endfacet
   facet normal 8.552606e-01 -1.571805e-01 4.937849e-01
      outer loop
         vertex 1.095033e+01 2.500000e+01 4.741689e+00
         vertex 7.293869e+00 1.500000e+01 7.891689e+00
         vertex 9.112522e+00 1.500000e+01 4.741689e+00
      endloop
   endfacet
   facet normal 8.552606e-01 -1.571805e-01 -4.937849e-01
      outer loop
         vertex 1.095033e+01 2.500000e+01 4.741689e+00
         vertex 9.112522e+00 1.500000e+01 4.741689e+00
         vertex 8.212773e+00 2.500000e+01 1.001172e-04
      endloop
   endfacet
   facet normal 8.552606e-01 -1.571805e-01 -4.937849e-01
      outer loop
         vertex 8.212773e+00 2.500000e+01 1.001172e-04
         vertex 9.112522e+00 1.500000e+01 4.741689e+00
         vertex 7.293869e+00 1.500000e+01 1.591689e+00
      endloop
   endfacet
   facet normal -1.000000e+00 0.000000e+00 0.000000e+00
      outer loop
         vertex 8.225216e+00 1.900000e+01 1.991689e+00
         vertex 8.225216e+00 1.900000e+01 7.491689e+00
         vertex 8.225216e+00 2.500000e+01 1.991689e+00
      endloop
   endfacet
   facet normal -1.000000e+00 0.000000e+00 0.000000e+00
      outer loop
         vertex 8.225216e+00 2.500000e+01 1.991689e+00
         vertex 8.225216e+00 1.900000e+01 7.491689e+00
         vertex 8.225216e+00 2.500000e+01 7.491689e+00
      endloop
   endfacet
   facet normal 0.000000e+00 0.000000e+00 -1.000000e+00
      outer loop
         vertex 8.225216e+00 1.900000e+01 7.491689e+00
         vertex 2.725216e+00 1.900000e+01 7.491689e+00
         vertex 8.225216e+00 2.500000e+01 7.491689e+00
      endloop
   endfacet
   facet normal -0.000000e+00 0.000000e+00 -1.000000e+00
      outer loop
         vertex 8.225216e+00 2.500000e+01 7.491689e+00
         vertex 2.725216e+00 1.900000e+01 7.491689e+00
         vertex 2.725216e+00 2.500000e+01 7.491689e+00
      endloop
   endfacet
   facet normal 1.000000e+00 -0.000000e+00 0.000000e+00
      outer loop
         vertex 2.725216e+00 1.900000e+01 7.491689e+00
         vertex 2.725216e+00 1.900000e+01 1.991689e+00
         vertex 2.725216e+00 2.500000e+01 7.491689e+00
      endloop
   endfacet
   facet normal 1.000000e+00 0.000000e+00 0.000000e+00
      outer loop
         vertex 2.725216e+00 2.500000e+01 7.491689e+00
         vertex 2.725216e+00 1.900000e+01 1.991689e+00
         vertex 2.725216e+00 2.500000e+01 1.991689e+00
      endloop
   endfacet
   facet normal 0.000000e+00 0.000000e+00 1.000000e+00
      outer loop
         vertex 2.725216e+00 1.900000e+01 1.991689e+00
         vertex 8.225216e+00 1.900000e+01 1.991689e+00
         vertex 2.725216e+00 2.500000e+01 1.991689e+00
      endloop
   endfacet
   facet normal -0.000000e+00 0.000000e+00 1.000000e+00
      outer loop
         vertex 2.725216e+00 2.500000e+01 1.991689e+00
         vertex 8.225216e+00 1.900000e+01 1.991689e+00
         vertex 8.225216e+00 2.500000e+01 1.991689e+00
      endloop
   endfacet
   facet normal 0.000000e+00 1.000000e+00 0.000000e+00
      outer loop
         vertex 2.725216e+00 1.900000e+01 1.991689e+00
         vertex 2.725216e+00 1.900000e+01 7.491689e+00
         vertex 8.225216e+00 1.900000e+01 1.991689e+00
      endloop
   endfacet
   facet normal 0.000000e+00 1.000000e+00 -0.000000e+00
      outer loop
         vertex 8.225216e+00 1.900000e+01 1.991689e+00
         vertex 2.725216e+00 1.900000e+01 7.491689e+00
         vertex 8.225216e+00 1.900000e+01 7.491689e+00
      endloop
   endfacet
endsolid